<svg xmlns="http://www.w3.org/2000/svg" xmlns:xlink="http://www.w3.org/1999/xlink" width="500" zoomAndPan="magnify" viewBox="0 0 375 374.999991" height="500" preserveAspectRatio="xMidYMid meet" version="1.0"><defs><g/><clipPath id="688155ce9a"><path d="M 66 159.605469 L 156 159.605469 L 156 215.855469 L 66 215.855469 Z M 66 159.605469 " clip-rule="nonzero"/></clipPath><clipPath id="b0616cb35b"><path d="M 79.757812 160.332031 L 108.5625 160.332031 L 108.5625 198.605469 L 79.757812 198.605469 Z M 79.757812 160.332031 " clip-rule="nonzero"/></clipPath><clipPath id="bc9c8cc02c"><path d="M 77.019531 177 L 87 177 L 87 179 L 77.019531 179 Z M 77.019531 177 " clip-rule="nonzero"/></clipPath><clipPath id="9d550fba93"><path d="M 95 159.605469 L 97 159.605469 L 97 171 L 95 171 Z M 95 159.605469 " clip-rule="nonzero"/></clipPath><clipPath id="5d8dd7a585"><path d="M 104.769531 177.882812 L 113.769531 177.882812 L 113.769531 178.824219 L 104.769531 178.824219 Z M 104.769531 177.882812 " clip-rule="nonzero"/></clipPath></defs><g clip-path="url(#688155ce9a)"><path fill="#c888db" d="M 66.089844 159.683594 C 69.769531 159.683594 73.324219 159.683594 77.03125 159.683594 C 77.03125 160.132812 77.03125 160.539062 77.03125 160.945312 C 77.03125 171.71875 77.015625 182.492188 77.050781 193.265625 C 77.058594 194.699219 77.195312 196.167969 77.519531 197.5625 C 78.515625 201.820312 81.640625 204.425781 85.992188 204.976562 C 88.804688 205.335938 91.421875 204.828125 93.949219 203.628906 C 97.550781 201.917969 100.703125 199.527344 103.84375 197.125 C 108.386719 193.644531 112.890625 190.109375 117.894531 187.285156 C 121.925781 185.007812 126.160156 183.265625 130.773438 182.640625 C 132.933594 182.347656 135.132812 182.382812 137.300781 182.117188 C 139.835938 181.808594 141.976562 180.707031 142.871094 178.140625 C 143.78125 175.535156 143.617188 172.980469 141.679688 170.808594 C 140.34375 169.308594 138.53125 168.648438 136.59375 168.585938 C 132.960938 168.46875 129.324219 168.523438 125.691406 168.484375 C 124.976562 168.476562 125.042969 168.929688 125.042969 169.386719 C 125.042969 172.890625 125.007812 176.398438 125.0625 179.902344 C 125.078125 180.871094 124.808594 181.28125 123.855469 181.6875 C 120.9375 182.929688 118.109375 184.375 115.25 185.75 C 114.90625 185.914062 114.585938 186.128906 114.101562 186.410156 C 114.074219 185.984375 114.039062 185.6875 114.039062 185.386719 C 114.035156 177.21875 114.03125 169.046875 114.03125 160.878906 C 114.03125 159.644531 114.039062 159.636719 115.300781 159.636719 C 122.570312 159.636719 129.839844 159.613281 137.105469 159.644531 C 140.652344 159.660156 144.078125 160.289062 147.28125 161.902344 C 156.246094 166.414062 156.152344 177.515625 151.382812 182.484375 C 150.585938 183.3125 149.671875 184.050781 148.714844 184.683594 C 147.757812 185.316406 146.679688 185.765625 145.574219 186.335938 C 145.808594 186.4375 146.007812 186.546875 146.222656 186.609375 C 152.460938 188.4375 156.417969 194.613281 155.78125 201.050781 C 155.109375 207.828125 150.390625 212.621094 142.886719 214.015625 C 141.285156 214.3125 139.628906 214.46875 138 214.476562 C 130.378906 214.523438 122.753906 214.5 115.132812 214.496094 C 114.816406 214.496094 114.5 214.46875 114.039062 214.449219 C 114.039062 213.992188 114.039062 213.589844 114.039062 213.183594 C 114.039062 210.578125 114.023438 207.972656 114.054688 205.367188 C 114.058594 204.988281 114.164062 204.484375 114.417969 204.246094 C 117.414062 201.417969 120.472656 198.664062 124.074219 196.597656 C 124.316406 196.460938 124.578125 196.351562 125.011719 196.140625 C 125.011719 199.332031 125.011719 202.386719 125.011719 205.488281 C 125.40625 205.523438 125.65625 205.566406 125.902344 205.566406 C 129.472656 205.570312 133.042969 205.582031 136.613281 205.554688 C 137.378906 205.546875 138.15625 205.457031 138.910156 205.304688 C 142.445312 204.597656 144.53125 202.222656 144.667969 198.804688 C 144.824219 194.992188 142.953125 192.222656 139.414062 191.246094 C 136.136719 190.339844 132.84375 190.746094 129.597656 191.507812 C 124.515625 192.695312 120.285156 195.464844 116.425781 198.847656 C 113.109375 201.75 109.921875 204.796875 106.566406 207.648438 C 103.625 210.152344 100.515625 212.460938 96.761719 213.652344 C 90.238281 215.71875 83.75 215.691406 77.449219 212.878906 C 71.242188 210.109375 67.738281 205.152344 66.527344 198.550781 C 66.238281 196.980469 66.113281 195.359375 66.109375 193.757812 C 66.074219 182.695312 66.089844 171.632812 66.089844 160.566406 C 66.089844 160.3125 66.089844 160.058594 66.089844 159.683594 Z M 66.089844 159.683594 " fill-opacity="1" fill-rule="nonzero"/></g><g clip-path="url(#b0616cb35b)"><path fill="#8ec5cd" d="M 88.449219 179.5 L 93.792969 179.613281 L 79.78125 198.890625 L 102.320312 176.960938 L 96.929688 176.824219 L 108.535156 160.339844 L 88.449219 179.5 " fill-opacity="1" fill-rule="nonzero"/></g><path fill="#8ec5cd" d="M 89.300781 191.953125 C 89.269531 191.941406 89.234375 191.925781 89.199219 191.910156 C 89.042969 191.839844 88.859375 191.910156 88.789062 192.066406 L 87.742188 194.429688 C 87.675781 194.585938 87.746094 194.769531 87.902344 194.839844 L 88.113281 194.933594 C 88.269531 195 88.453125 194.929688 88.523438 194.773438 L 89.566406 192.410156 C 89.636719 192.253906 89.5625 192.070312 89.40625 192 C 89.371094 191.984375 89.335938 191.96875 89.300781 191.953125 " fill-opacity="1" fill-rule="nonzero"/><path fill="#8ec5cd" d="M 100.652344 192.640625 L 101.597656 195.078125 C 101.660156 195.238281 101.839844 195.320312 102 195.257812 L 102.210938 195.175781 C 102.371094 195.113281 102.453125 194.933594 102.390625 194.773438 L 101.445312 192.332031 C 101.382812 192.171875 101.199219 192.09375 101.039062 192.15625 C 100.96875 192.183594 100.902344 192.210938 100.832031 192.238281 C 100.671875 192.300781 100.589844 192.480469 100.652344 192.640625 " fill-opacity="1" fill-rule="nonzero"/><path fill="#8ec5cd" d="M 94.734375 187.535156 L 94.675781 196.140625 C 94.675781 196.308594 94.8125 196.449219 94.980469 196.453125 L 95.210938 196.457031 C 95.382812 196.460938 95.523438 196.320312 95.527344 196.148438 L 95.585938 187.542969 C 95.585938 187.371094 95.445312 187.230469 95.273438 187.230469 C 95.203125 187.230469 95.128906 187.230469 95.054688 187.226562 C 94.878906 187.222656 94.734375 187.363281 94.734375 187.535156 " fill-opacity="1" fill-rule="nonzero"/><path fill="#8ec5cd" d="M 83.972656 188.492188 L 82.105469 190.285156 C 81.984375 190.40625 81.980469 190.601562 82.097656 190.726562 L 82.257812 190.890625 C 82.375 191.015625 82.574219 191.015625 82.695312 190.898438 L 84.558594 189.105469 C 84.683594 188.984375 84.6875 188.789062 84.566406 188.664062 C 84.515625 188.609375 84.464844 188.558594 84.414062 188.503906 C 84.296875 188.378906 84.097656 188.371094 83.972656 188.492188 " fill-opacity="1" fill-rule="nonzero"/><path fill="#8ec5cd" d="M 105.871094 189.472656 L 107.707031 191.382812 C 107.828125 191.503906 108.023438 191.507812 108.148438 191.390625 L 108.3125 191.230469 C 108.433594 191.113281 108.4375 190.914062 108.320312 190.792969 L 106.484375 188.882812 C 106.363281 188.757812 106.164062 188.757812 106.039062 188.878906 C 105.988281 188.929688 105.933594 188.984375 105.882812 189.035156 C 105.757812 189.152344 105.753906 189.351562 105.871094 189.472656 " fill-opacity="1" fill-rule="nonzero"/><g clip-path="url(#bc9c8cc02c)"><path fill="#8ec5cd" d="M 86.105469 177.3125 L 77.347656 177.253906 C 77.179688 177.253906 77.039062 177.390625 77.035156 177.558594 L 77.03125 177.789062 C 77.027344 177.960938 77.167969 178.101562 77.339844 178.105469 L 86.097656 178.164062 C 86.265625 178.164062 86.40625 178.027344 86.410156 177.855469 C 86.410156 177.785156 86.410156 177.710938 86.414062 177.636719 C 86.417969 177.460938 86.28125 177.316406 86.105469 177.3125 " fill-opacity="1" fill-rule="nonzero"/></g><path fill="#8ec5cd" d="M 80.847656 183.230469 L 78.410156 184.175781 C 78.25 184.238281 78.167969 184.417969 78.230469 184.578125 L 78.3125 184.789062 C 78.375 184.949219 78.554688 185.03125 78.714844 184.96875 L 81.152344 184.023438 C 81.316406 183.960938 81.394531 183.78125 81.332031 183.621094 C 81.304688 183.550781 81.277344 183.480469 81.25 183.414062 C 81.191406 183.25 81.011719 183.167969 80.847656 183.230469 " fill-opacity="1" fill-rule="nonzero"/><path fill="#8ec5cd" d="M 101.519531 164.3125 C 101.554688 164.328125 101.589844 164.34375 101.621094 164.359375 C 101.78125 164.429688 101.964844 164.355469 102.035156 164.199219 L 103.167969 161.636719 C 103.234375 161.480469 103.164062 161.296875 103.007812 161.226562 L 102.796875 161.136719 C 102.640625 161.066406 102.457031 161.136719 102.386719 161.292969 L 101.257812 163.855469 C 101.1875 164.011719 101.257812 164.199219 101.417969 164.265625 C 101.449219 164.28125 101.484375 164.296875 101.519531 164.3125 " fill-opacity="1" fill-rule="nonzero"/><path fill="#8ec5cd" d="M 90.3125 163.570312 L 89.3125 160.988281 C 89.25 160.828125 89.070312 160.746094 88.910156 160.808594 L 88.699219 160.890625 C 88.539062 160.953125 88.457031 161.132812 88.519531 161.292969 L 89.519531 163.875 C 89.582031 164.035156 89.761719 164.117188 89.925781 164.054688 C 89.992188 164.027344 90.0625 164 90.132812 163.972656 C 90.292969 163.914062 90.375 163.734375 90.3125 163.570312 " fill-opacity="1" fill-rule="nonzero"/><path fill="#8ec5cd" d="M 85.097656 166.652344 L 83.203125 164.683594 C 83.082031 164.5625 82.886719 164.558594 82.761719 164.675781 L 82.597656 164.835938 C 82.476562 164.953125 82.472656 165.152344 82.589844 165.273438 L 84.480469 167.242188 C 84.601562 167.367188 84.796875 167.367188 84.921875 167.25 C 84.976562 167.199219 85.03125 167.148438 85.082031 167.097656 C 85.210938 166.976562 85.214844 166.777344 85.097656 166.652344 " fill-opacity="1" fill-rule="nonzero"/><g clip-path="url(#9d550fba93)"><path fill="#8ec5cd" d="M 96.171875 169.882812 L 96.234375 159.925781 C 96.234375 159.757812 96.097656 159.617188 95.929688 159.613281 L 95.699219 159.609375 C 95.527344 159.605469 95.386719 159.746094 95.382812 159.917969 L 95.320312 169.875 C 95.320312 170.046875 95.457031 170.1875 95.628906 170.1875 C 95.703125 170.191406 95.777344 170.191406 95.851562 170.195312 C 96.027344 170.199219 96.171875 170.058594 96.171875 169.882812 " fill-opacity="1" fill-rule="nonzero"/></g><path fill="#8ec5cd" d="M 81.175781 172.1875 C 81.335938 172.257812 81.519531 172.183594 81.585938 172.027344 C 81.589844 172.027344 81.589844 172.027344 81.589844 172.023438 C 81.617188 171.957031 81.648438 171.890625 81.679688 171.824219 C 81.75 171.667969 81.679688 171.480469 81.523438 171.410156 L 79.058594 170.320312 C 78.902344 170.253906 78.71875 170.324219 78.648438 170.480469 L 78.554688 170.691406 C 78.488281 170.847656 78.558594 171.03125 78.714844 171.101562 L 81.175781 172.1875 " fill-opacity="1" fill-rule="nonzero"/><g clip-path="url(#5d8dd7a585)"><path fill="#8ec5cd" d="M 105.082031 178.75 L 113.5625 178.8125 C 113.730469 178.8125 113.871094 178.675781 113.875 178.507812 L 113.878906 178.277344 C 113.882812 178.105469 113.742188 177.964844 113.570312 177.960938 L 105.089844 177.902344 C 104.917969 177.898438 104.777344 178.039062 104.777344 178.210938 C 104.777344 178.285156 104.773438 178.359375 104.773438 178.433594 C 104.769531 178.605469 104.90625 178.75 105.082031 178.75 " fill-opacity="1" fill-rule="nonzero"/></g><path fill="#8ec5cd" d="M 109.234375 184.242188 C 109.230469 184.242188 109.230469 184.242188 109.230469 184.246094 C 109.160156 184.402344 109.230469 184.585938 109.390625 184.65625 L 111.851562 185.746094 C 112.007812 185.8125 112.191406 185.742188 112.261719 185.585938 L 112.355469 185.375 C 112.421875 185.21875 112.351562 185.035156 112.195312 184.964844 L 109.730469 183.878906 C 109.570312 183.808594 109.386719 183.882812 109.320312 184.042969 C 109.292969 184.109375 109.261719 184.175781 109.234375 184.242188 " fill-opacity="1" fill-rule="nonzero"/><path fill="#8ec5cd" d="M 109.917969 172.890625 L 112.5 171.890625 C 112.660156 171.828125 112.742188 171.648438 112.679688 171.488281 L 112.597656 171.277344 C 112.535156 171.117188 112.355469 171.039062 112.195312 171.097656 L 109.609375 172.097656 C 109.449219 172.160156 109.371094 172.34375 109.433594 172.503906 C 109.464844 172.574219 109.488281 172.644531 109.515625 172.710938 C 109.578125 172.871094 109.757812 172.953125 109.917969 172.890625 " fill-opacity="1" fill-rule="nonzero"/><path fill="#8ec5cd" d="M 106.792969 167.714844 L 108.804688 165.78125 C 108.925781 165.660156 108.929688 165.464844 108.8125 165.339844 L 108.652344 165.175781 C 108.535156 165.054688 108.335938 165.050781 108.214844 165.167969 L 106.203125 167.101562 C 106.078125 167.222656 106.078125 167.421875 106.199219 167.546875 C 106.25 167.597656 106.300781 167.652344 106.351562 167.703125 C 106.472656 167.828125 106.667969 167.835938 106.792969 167.714844 " fill-opacity="1" fill-rule="nonzero"/><g fill="#8ec5cd" fill-opacity="1"><g transform="translate(156.502187, 180.001951)"><g><path d="M 6.40625 -2.796875 L 17 -2.796875 C 16.820312 -2.265625 16.628906 -1.773438 16.421875 -1.328125 C 16.023438 -0.523438 15.347656 -0.09375 14.390625 -0.03125 L 14.390625 0 L 3.625 0 C 3.144531 0 2.742188 -0.164062 2.421875 -0.5 C 2.097656 -0.832031 1.9375 -1.222656 1.9375 -1.671875 L 1.9375 -16.765625 C 1.9375 -17.140625 1.921875 -17.660156 1.890625 -18.328125 C 1.867188 -18.992188 1.78125 -19.6875 1.625 -20.40625 C 1.46875 -21.132812 1.203125 -21.773438 0.828125 -22.328125 L 4.171875 -22.328125 C 4.785156 -22.328125 5.3125 -22.109375 5.75 -21.671875 C 6.1875 -21.242188 6.40625 -20.71875 6.40625 -20.09375 Z M 6.40625 -2.796875 "/></g></g></g><g fill="#8ec5cd" fill-opacity="1"><g transform="translate(173.297581, 180.001951)"><g><path d="M 6.40625 -5.59375 C 6.40625 -5.21875 6.421875 -4.695312 6.453125 -4.03125 C 6.484375 -3.363281 6.578125 -2.664062 6.734375 -1.9375 C 6.890625 -1.21875 7.15625 -0.570312 7.53125 0 L 4.171875 0 C 3.546875 0 3.015625 -0.21875 2.578125 -0.65625 C 2.148438 -1.101562 1.9375 -1.628906 1.9375 -2.234375 L 1.9375 -16.765625 C 1.9375 -17.140625 1.921875 -17.660156 1.890625 -18.328125 C 1.867188 -18.992188 1.78125 -19.6875 1.625 -20.40625 C 1.46875 -21.132812 1.203125 -21.773438 0.828125 -22.328125 L 4.171875 -22.328125 C 4.785156 -22.328125 5.3125 -22.109375 5.75 -21.671875 C 6.1875 -21.242188 6.40625 -20.71875 6.40625 -20.09375 Z M 6.40625 -5.59375 "/></g></g></g><g fill="#8ec5cd" fill-opacity="1"><g transform="translate(181.651161, 180.001951)"><g><path d="M 18.984375 -3.90625 C 18.984375 -3.363281 19.015625 -2.75 19.078125 -2.0625 C 19.148438 -1.375 19.390625 -0.675781 19.796875 0.03125 L 17 0.03125 C 16.394531 0.03125 15.867188 -0.1875 15.421875 -0.625 C 14.984375 -1.070312 14.765625 -1.597656 14.765625 -2.203125 L 14.765625 -3.640625 C 14.492188 -3.035156 14.109375 -2.425781 13.609375 -1.8125 C 13.109375 -1.207031 12.492188 -0.703125 11.765625 -0.296875 C 11.046875 0.0976562 10.210938 0.296875 9.265625 0.296875 C 7.773438 0.296875 6.5 0.015625 5.4375 -0.546875 C 4.382812 -1.117188 3.515625 -1.910156 2.828125 -2.921875 C 2.140625 -3.929688 1.632812 -5.09375 1.3125 -6.40625 C 0.988281 -7.726562 0.828125 -9.132812 0.828125 -10.625 C 0.828125 -12.113281 1.050781 -13.566406 1.5 -14.984375 C 1.945312 -16.410156 2.613281 -17.695312 3.5 -18.84375 C 4.382812 -19.988281 5.46875 -20.90625 6.75 -21.59375 C 8.03125 -22.28125 9.507812 -22.625 11.1875 -22.625 C 12.90625 -22.625 14.3125 -22.394531 15.40625 -21.9375 C 16.507812 -21.476562 17.335938 -20.890625 17.890625 -20.171875 C 18.453125 -19.453125 18.78125 -18.710938 18.875 -17.953125 C 18.976562 -17.203125 18.890625 -16.519531 18.609375 -15.90625 C 18.328125 -15.300781 17.898438 -14.875 17.328125 -14.625 C 16.703125 -14.363281 16.09375 -14.113281 15.5 -13.875 C 14.914062 -13.644531 14.425781 -13.460938 14.03125 -13.328125 C 13.644531 -13.191406 13.453125 -13.125 13.453125 -13.125 C 13.816406 -13.5 14.109375 -13.984375 14.328125 -14.578125 C 14.546875 -15.171875 14.660156 -15.800781 14.671875 -16.46875 C 14.679688 -17.132812 14.566406 -17.765625 14.328125 -18.359375 C 14.085938 -18.960938 13.707031 -19.453125 13.1875 -19.828125 C 12.675781 -20.203125 12.007812 -20.390625 11.1875 -20.390625 C 10.34375 -20.390625 9.519531 -20.082031 8.71875 -19.46875 C 7.925781 -18.863281 7.273438 -17.863281 6.765625 -16.46875 C 6.253906 -15.082031 6 -13.222656 6 -10.890625 C 6 -9.222656 6.125 -7.84375 6.375 -6.75 C 6.632812 -5.664062 6.984375 -4.8125 7.421875 -4.1875 C 7.867188 -3.570312 8.375 -3.132812 8.9375 -2.875 C 9.507812 -2.625 10.109375 -2.5 10.734375 -2.5 C 11.367188 -2.5 11.9375 -2.660156 12.4375 -2.984375 C 12.9375 -3.304688 13.359375 -3.707031 13.703125 -4.1875 C 14.054688 -4.664062 14.320312 -5.148438 14.5 -5.640625 C 14.675781 -6.140625 14.765625 -6.546875 14.765625 -6.859375 L 14.765625 -8.671875 L 9.765625 -8.671875 C 10.046875 -9.328125 10.285156 -9.8125 10.484375 -10.125 C 10.691406 -10.4375 10.894531 -10.640625 11.09375 -10.734375 C 11.289062 -10.835938 11.515625 -10.890625 11.765625 -10.890625 L 17.390625 -10.890625 C 17.816406 -10.890625 18.1875 -10.734375 18.5 -10.421875 C 18.820312 -10.117188 18.984375 -9.742188 18.984375 -9.296875 Z M 18.984375 -3.90625 "/></g></g></g><g fill="#8ec5cd" fill-opacity="1"><g transform="translate(202.240957, 180.001951)"><g><path d="M 6.40625 -20.09375 L 6.40625 -5.59375 C 6.40625 -5.21875 6.421875 -4.695312 6.453125 -4.03125 C 6.484375 -3.363281 6.578125 -2.664062 6.734375 -1.9375 C 6.890625 -1.21875 7.15625 -0.570312 7.53125 0 L 4.171875 0 C 3.546875 0 3.015625 -0.21875 2.578125 -0.65625 C 2.148438 -1.101562 1.9375 -1.628906 1.9375 -2.234375 L 1.9375 -16.765625 C 1.9375 -17.140625 1.921875 -17.660156 1.890625 -18.328125 C 1.867188 -18.992188 1.78125 -19.6875 1.625 -20.40625 C 1.46875 -21.132812 1.203125 -21.773438 0.828125 -22.328125 L 4.171875 -22.328125 C 4.785156 -22.328125 5.3125 -22.109375 5.75 -21.671875 C 6.1875 -21.242188 6.40625 -20.71875 6.40625 -20.09375 Z M 19.5 -5.59375 C 19.5 -5.21875 19.515625 -4.695312 19.546875 -4.03125 C 19.578125 -3.363281 19.671875 -2.664062 19.828125 -1.9375 C 19.984375 -1.21875 20.25 -0.570312 20.625 0 L 17.265625 0 C 16.640625 0 16.109375 -0.21875 15.671875 -0.65625 C 15.242188 -1.101562 15.03125 -1.628906 15.03125 -2.234375 L 15.03125 -16.765625 C 15.03125 -17.140625 15.015625 -17.660156 14.984375 -18.328125 C 14.960938 -18.992188 14.867188 -19.6875 14.703125 -20.40625 C 14.546875 -21.132812 14.285156 -21.773438 13.921875 -22.328125 L 17.265625 -22.328125 C 17.878906 -22.328125 18.40625 -22.109375 18.84375 -21.671875 C 19.28125 -21.242188 19.5 -20.71875 19.5 -20.09375 Z M 9.765625 -13.421875 L 14.46875 -13.421875 L 13.921875 -12 C 13.742188 -11.59375 13.4375 -11.257812 13 -11 C 12.570312 -10.75 12.132812 -10.625 11.6875 -10.625 L 6.96875 -10.625 L 7.53125 -12.03125 C 7.6875 -12.445312 7.984375 -12.78125 8.421875 -13.03125 C 8.867188 -13.289062 9.316406 -13.421875 9.765625 -13.421875 Z M 9.765625 -13.421875 "/></g></g></g><g fill="#8ec5cd" fill-opacity="1"><g transform="translate(223.683762, 180.001951)"><g><path d="M 1.96875 -22.328125 L 17.03125 -22.328125 L 16.46875 -20.921875 C 16.300781 -20.503906 16 -20.164062 15.5625 -19.90625 C 15.132812 -19.65625 14.691406 -19.53125 14.234375 -19.53125 L 8.671875 -19.53125 C 9.128906 -19.53125 9.519531 -19.367188 9.84375 -19.046875 C 10.164062 -18.722656 10.328125 -18.335938 10.328125 -17.890625 L 10.328125 -5.59375 C 10.328125 -5.21875 10.34375 -4.695312 10.375 -4.03125 C 10.414062 -3.363281 10.507812 -2.664062 10.65625 -1.9375 C 10.8125 -1.21875 11.070312 -0.570312 11.4375 0 L 8.125 0 C 7.488281 0 6.957031 -0.21875 6.53125 -0.65625 C 6.101562 -1.101562 5.890625 -1.628906 5.890625 -2.234375 L 5.890625 -19.53125 L -0.828125 -19.53125 L -0.265625 -20.953125 C -0.0859375 -21.378906 0.210938 -21.710938 0.640625 -21.953125 C 1.078125 -22.203125 1.519531 -22.328125 1.96875 -22.328125 Z M 1.96875 -22.328125 "/></g></g></g><g fill="#8ec5cd" fill-opacity="1"><g transform="translate(239.890873, 180.001951)"><g><path d="M 16.828125 -22.328125 C 17.296875 -22.328125 17.691406 -22.164062 18.015625 -21.84375 C 18.335938 -21.519531 18.5 -21.125 18.5 -20.65625 L 18.5 -2.796875 L 14.453125 0.265625 L 4.5625 -16.625 L 4.5625 -4.46875 C 4.5625 -4.46875 4.566406 -4.316406 4.578125 -4.015625 C 4.585938 -3.710938 4.601562 -3.328125 4.625 -2.859375 C 4.65625 -2.398438 4.707031 -1.914062 4.78125 -1.40625 C 4.863281 -0.894531 4.976562 -0.425781 5.125 0 L 2.890625 0 C 2.566406 0 2.296875 -0.109375 2.078125 -0.328125 C 1.867188 -0.554688 1.765625 -0.820312 1.765625 -1.125 L 1.765625 -17.890625 C 1.765625 -17.890625 1.757812 -18.035156 1.75 -18.328125 C 1.738281 -18.617188 1.71875 -19 1.6875 -19.46875 C 1.65625 -19.945312 1.597656 -20.441406 1.515625 -20.953125 C 1.441406 -21.460938 1.335938 -21.921875 1.203125 -22.328125 L 4.59375 -22.328125 C 5.132812 -22.328125 5.613281 -22.242188 6.03125 -22.078125 C 6.457031 -21.910156 6.8125 -21.613281 7.09375 -21.1875 L 15.71875 -6.171875 L 15.71875 -17.890625 C 15.71875 -17.890625 15.71875 -18.035156 15.71875 -18.328125 C 15.71875 -18.617188 15.695312 -19 15.65625 -19.46875 C 15.613281 -19.945312 15.550781 -20.441406 15.46875 -20.953125 C 15.394531 -21.460938 15.289062 -21.921875 15.15625 -22.328125 Z M 16.828125 -22.328125 "/></g></g></g><g fill="#8ec5cd" fill-opacity="1"><g transform="translate(259.980631, 180.001951)"><g><path d="M 6.40625 -5.59375 C 6.40625 -5.21875 6.421875 -4.695312 6.453125 -4.03125 C 6.484375 -3.363281 6.578125 -2.664062 6.734375 -1.9375 C 6.890625 -1.21875 7.15625 -0.570312 7.53125 0 L 4.171875 0 C 3.546875 0 3.015625 -0.21875 2.578125 -0.65625 C 2.148438 -1.101562 1.9375 -1.628906 1.9375 -2.234375 L 1.9375 -16.765625 C 1.9375 -17.140625 1.921875 -17.660156 1.890625 -18.328125 C 1.867188 -18.992188 1.78125 -19.6875 1.625 -20.40625 C 1.46875 -21.132812 1.203125 -21.773438 0.828125 -22.328125 L 4.171875 -22.328125 C 4.785156 -22.328125 5.3125 -22.109375 5.75 -21.671875 C 6.1875 -21.242188 6.40625 -20.71875 6.40625 -20.09375 Z M 6.40625 -5.59375 "/></g></g></g><g fill="#8ec5cd" fill-opacity="1"><g transform="translate(268.334211, 180.001951)"><g><path d="M 16.828125 -22.328125 C 17.296875 -22.328125 17.691406 -22.164062 18.015625 -21.84375 C 18.335938 -21.519531 18.5 -21.125 18.5 -20.65625 L 18.5 -2.796875 L 14.453125 0.265625 L 4.5625 -16.625 L 4.5625 -4.46875 C 4.5625 -4.46875 4.566406 -4.316406 4.578125 -4.015625 C 4.585938 -3.710938 4.601562 -3.328125 4.625 -2.859375 C 4.65625 -2.398438 4.707031 -1.914062 4.78125 -1.40625 C 4.863281 -0.894531 4.976562 -0.425781 5.125 0 L 2.890625 0 C 2.566406 0 2.296875 -0.109375 2.078125 -0.328125 C 1.867188 -0.554688 1.765625 -0.820312 1.765625 -1.125 L 1.765625 -17.890625 C 1.765625 -17.890625 1.757812 -18.035156 1.75 -18.328125 C 1.738281 -18.617188 1.71875 -19 1.6875 -19.46875 C 1.65625 -19.945312 1.597656 -20.441406 1.515625 -20.953125 C 1.441406 -21.460938 1.335938 -21.921875 1.203125 -22.328125 L 4.59375 -22.328125 C 5.132812 -22.328125 5.613281 -22.242188 6.03125 -22.078125 C 6.457031 -21.910156 6.8125 -21.613281 7.09375 -21.1875 L 15.71875 -6.171875 L 15.71875 -17.890625 C 15.71875 -17.890625 15.71875 -18.035156 15.71875 -18.328125 C 15.71875 -18.617188 15.695312 -19 15.65625 -19.46875 C 15.613281 -19.945312 15.550781 -20.441406 15.46875 -20.953125 C 15.394531 -21.460938 15.289062 -21.921875 15.15625 -22.328125 Z M 16.828125 -22.328125 "/></g></g></g><g fill="#8ec5cd" fill-opacity="1"><g transform="translate(288.423969, 180.001951)"><g><path d="M 18.984375 -3.90625 C 18.984375 -3.363281 19.015625 -2.75 19.078125 -2.0625 C 19.148438 -1.375 19.390625 -0.675781 19.796875 0.03125 L 17 0.03125 C 16.394531 0.03125 15.867188 -0.1875 15.421875 -0.625 C 14.984375 -1.070312 14.765625 -1.597656 14.765625 -2.203125 L 14.765625 -3.640625 C 14.492188 -3.035156 14.109375 -2.425781 13.609375 -1.8125 C 13.109375 -1.207031 12.492188 -0.703125 11.765625 -0.296875 C 11.046875 0.0976562 10.210938 0.296875 9.265625 0.296875 C 7.773438 0.296875 6.5 0.015625 5.4375 -0.546875 C 4.382812 -1.117188 3.515625 -1.910156 2.828125 -2.921875 C 2.140625 -3.929688 1.632812 -5.09375 1.3125 -6.40625 C 0.988281 -7.726562 0.828125 -9.132812 0.828125 -10.625 C 0.828125 -12.113281 1.050781 -13.566406 1.5 -14.984375 C 1.945312 -16.410156 2.613281 -17.695312 3.5 -18.84375 C 4.382812 -19.988281 5.46875 -20.90625 6.75 -21.59375 C 8.03125 -22.28125 9.507812 -22.625 11.1875 -22.625 C 12.90625 -22.625 14.3125 -22.394531 15.40625 -21.9375 C 16.507812 -21.476562 17.335938 -20.890625 17.890625 -20.171875 C 18.453125 -19.453125 18.78125 -18.710938 18.875 -17.953125 C 18.976562 -17.203125 18.890625 -16.519531 18.609375 -15.90625 C 18.328125 -15.300781 17.898438 -14.875 17.328125 -14.625 C 16.703125 -14.363281 16.09375 -14.113281 15.5 -13.875 C 14.914062 -13.644531 14.425781 -13.460938 14.03125 -13.328125 C 13.644531 -13.191406 13.453125 -13.125 13.453125 -13.125 C 13.816406 -13.5 14.109375 -13.984375 14.328125 -14.578125 C 14.546875 -15.171875 14.660156 -15.800781 14.671875 -16.46875 C 14.679688 -17.132812 14.566406 -17.765625 14.328125 -18.359375 C 14.085938 -18.960938 13.707031 -19.453125 13.1875 -19.828125 C 12.675781 -20.203125 12.007812 -20.390625 11.1875 -20.390625 C 10.34375 -20.390625 9.519531 -20.082031 8.71875 -19.46875 C 7.925781 -18.863281 7.273438 -17.863281 6.765625 -16.46875 C 6.253906 -15.082031 6 -13.222656 6 -10.890625 C 6 -9.222656 6.125 -7.84375 6.375 -6.75 C 6.632812 -5.664062 6.984375 -4.8125 7.421875 -4.1875 C 7.867188 -3.570312 8.375 -3.132812 8.9375 -2.875 C 9.507812 -2.625 10.109375 -2.5 10.734375 -2.5 C 11.367188 -2.5 11.9375 -2.660156 12.4375 -2.984375 C 12.9375 -3.304688 13.359375 -3.707031 13.703125 -4.1875 C 14.054688 -4.664062 14.320312 -5.148438 14.5 -5.640625 C 14.675781 -6.140625 14.765625 -6.546875 14.765625 -6.859375 L 14.765625 -8.671875 L 9.765625 -8.671875 C 10.046875 -9.328125 10.285156 -9.8125 10.484375 -10.125 C 10.691406 -10.4375 10.894531 -10.640625 11.09375 -10.734375 C 11.289062 -10.835938 11.515625 -10.890625 11.765625 -10.890625 L 17.390625 -10.890625 C 17.816406 -10.890625 18.1875 -10.734375 18.5 -10.421875 C 18.820312 -10.117188 18.984375 -9.742188 18.984375 -9.296875 Z M 18.984375 -3.90625 "/></g></g></g><g fill="#c888db" fill-opacity="1"><g transform="translate(162.994374, 209.251949)"><g><path d="M 14.703125 -11.859375 C 15.847656 -11.304688 16.753906 -10.566406 17.421875 -9.640625 C 18.085938 -8.722656 18.421875 -7.644531 18.421875 -6.40625 C 18.421875 -5.3125 18.128906 -4.273438 17.546875 -3.296875 C 16.972656 -2.316406 16.085938 -1.519531 14.890625 -0.90625 C 13.691406 -0.300781 12.171875 0 10.328125 0 L 4.171875 0 C 3.546875 0 3.015625 -0.21875 2.578125 -0.65625 C 2.148438 -1.101562 1.9375 -1.628906 1.9375 -2.234375 L 1.9375 -16.734375 C 1.9375 -17.109375 1.921875 -17.628906 1.890625 -18.296875 C 1.867188 -18.960938 1.78125 -19.660156 1.625 -20.390625 C 1.46875 -21.128906 1.203125 -21.773438 0.828125 -22.328125 L 8.921875 -22.328125 C 9.484375 -22.328125 10.125 -22.300781 10.84375 -22.25 C 11.570312 -22.207031 12.3125 -22.085938 13.0625 -21.890625 C 13.8125 -21.691406 14.507812 -21.378906 15.15625 -20.953125 C 15.800781 -20.535156 16.316406 -19.960938 16.703125 -19.234375 C 17.097656 -18.515625 17.296875 -17.59375 17.296875 -16.46875 C 17.296875 -15.238281 17.046875 -14.253906 16.546875 -13.515625 C 16.046875 -12.785156 15.429688 -12.234375 14.703125 -11.859375 Z M 10.328125 -2.234375 C 10.972656 -2.234375 11.570312 -2.367188 12.125 -2.640625 C 12.675781 -2.921875 13.117188 -3.363281 13.453125 -3.96875 C 13.785156 -4.582031 13.953125 -5.394531 13.953125 -6.40625 C 13.953125 -7.25 13.828125 -8.007812 13.578125 -8.6875 C 13.328125 -9.363281 12.859375 -9.898438 12.171875 -10.296875 C 11.492188 -10.691406 10.503906 -10.890625 9.203125 -10.890625 L 6.96875 -10.890625 C 7.25 -11.492188 7.46875 -11.929688 7.625 -12.203125 C 7.78125 -12.484375 7.9375 -12.65625 8.09375 -12.71875 C 8.25 -12.789062 8.472656 -12.835938 8.765625 -12.859375 L 9.46875 -12.859375 C 10.21875 -12.859375 10.84375 -12.945312 11.34375 -13.125 C 11.84375 -13.300781 12.210938 -13.648438 12.453125 -14.171875 C 12.703125 -14.691406 12.828125 -15.457031 12.828125 -16.46875 C 12.828125 -17.488281 12.65625 -18.257812 12.3125 -18.78125 C 11.96875 -19.300781 11.5 -19.648438 10.90625 -19.828125 C 10.320312 -20.003906 9.660156 -20.09375 8.921875 -20.09375 L 6.40625 -20.09375 L 6.40625 -2.234375 Z M 10.328125 -2.234375 "/></g></g></g><g fill="#c888db" fill-opacity="1"><g transform="translate(182.201713, 209.251949)"><g><path d="M 11.421875 -22.625 C 13.222656 -22.625 14.789062 -22.3125 16.125 -21.6875 C 17.457031 -21.0625 18.5625 -20.207031 19.4375 -19.125 C 20.3125 -18.039062 20.957031 -16.816406 21.375 -15.453125 C 21.789062 -14.097656 22 -12.675781 22 -11.1875 C 22 -9.6875 21.789062 -8.253906 21.375 -6.890625 C 20.957031 -5.535156 20.3125 -4.316406 19.4375 -3.234375 C 18.5625 -2.160156 17.457031 -1.304688 16.125 -0.671875 C 14.789062 -0.046875 13.222656 0.265625 11.421875 0.265625 C 9.585938 0.265625 8.003906 -0.046875 6.671875 -0.671875 C 5.335938 -1.304688 4.234375 -2.160156 3.359375 -3.234375 C 2.492188 -4.316406 1.847656 -5.535156 1.421875 -6.890625 C 1.003906 -8.253906 0.796875 -9.6875 0.796875 -11.1875 C 0.796875 -12.675781 1.003906 -14.097656 1.421875 -15.453125 C 1.847656 -16.816406 2.492188 -18.039062 3.359375 -19.125 C 4.234375 -20.207031 5.335938 -21.0625 6.671875 -21.6875 C 8.003906 -22.3125 9.585938 -22.625 11.421875 -22.625 Z M 11.421875 -1.96875 C 12.515625 -1.96875 13.484375 -2.25 14.328125 -2.8125 C 15.171875 -3.382812 15.820312 -4.335938 16.28125 -5.671875 C 16.738281 -7.003906 16.96875 -8.84375 16.96875 -11.1875 C 16.96875 -13.519531 16.738281 -15.351562 16.28125 -16.6875 C 15.820312 -18.019531 15.171875 -18.96875 14.328125 -19.53125 C 13.484375 -20.101562 12.515625 -20.390625 11.421875 -20.390625 C 10.296875 -20.390625 9.3125 -20.101562 8.46875 -19.53125 C 7.625 -18.96875 6.972656 -18.015625 6.515625 -16.671875 C 6.054688 -15.328125 5.828125 -13.5 5.828125 -11.1875 C 5.828125 -8.84375 6.054688 -7.003906 6.515625 -5.671875 C 6.972656 -4.335938 7.625 -3.382812 8.46875 -2.8125 C 9.3125 -2.25 10.296875 -1.96875 11.421875 -1.96875 Z M 11.421875 -1.96875 "/></g></g></g><g fill="#c888db" fill-opacity="1"><g transform="translate(204.997564, 209.251949)"><g><path d="M 16.296875 -22.328125 C 16.765625 -22.328125 17.160156 -22.164062 17.484375 -21.84375 C 17.816406 -21.519531 17.984375 -21.125 17.984375 -20.65625 L 17.984375 -7.5625 C 17.984375 -6.007812 17.671875 -4.644531 17.046875 -3.46875 C 16.429688 -2.289062 15.535156 -1.375 14.359375 -0.71875 C 13.179688 -0.0625 11.769531 0.265625 10.125 0.265625 C 8.65625 0.265625 7.28125 0 6 -0.53125 C 4.726562 -1.0625 3.707031 -1.898438 2.9375 -3.046875 C 2.175781 -4.191406 1.796875 -5.695312 1.796875 -7.5625 L 1.796875 -16.765625 C 1.796875 -17.140625 1.78125 -17.660156 1.75 -18.328125 C 1.71875 -18.992188 1.625 -19.6875 1.46875 -20.40625 C 1.3125 -21.132812 1.046875 -21.773438 0.671875 -22.328125 L 4.03125 -22.328125 C 4.632812 -22.328125 5.15625 -22.109375 5.59375 -21.671875 C 6.039062 -21.242188 6.265625 -20.71875 6.265625 -20.09375 L 6.265625 -7.5625 C 6.265625 -6.34375 6.457031 -5.34375 6.84375 -4.5625 C 7.226562 -3.78125 7.738281 -3.195312 8.375 -2.8125 C 9.007812 -2.425781 9.695312 -2.234375 10.4375 -2.234375 C 11.789062 -2.234375 12.828125 -2.710938 13.546875 -3.671875 C 14.265625 -4.640625 14.625 -5.9375 14.625 -7.5625 L 14.625 -18.15625 C 14.625 -18.40625 14.601562 -18.800781 14.5625 -19.34375 C 14.519531 -19.882812 14.441406 -20.429688 14.328125 -20.984375 C 14.210938 -21.546875 14.035156 -21.992188 13.796875 -22.328125 Z M 16.296875 -22.328125 "/></g></g></g><g fill="#c888db" fill-opacity="1"><g transform="translate(224.440216, 209.251949)"><g><path d="M 16.828125 -22.328125 C 17.296875 -22.328125 17.691406 -22.164062 18.015625 -21.84375 C 18.335938 -21.519531 18.5 -21.125 18.5 -20.65625 L 18.5 -2.796875 L 14.453125 0.265625 L 4.5625 -16.625 L 4.5625 -4.46875 C 4.5625 -4.46875 4.566406 -4.316406 4.578125 -4.015625 C 4.585938 -3.710938 4.601562 -3.328125 4.625 -2.859375 C 4.65625 -2.398438 4.707031 -1.914062 4.78125 -1.40625 C 4.863281 -0.894531 4.976562 -0.425781 5.125 0 L 2.890625 0 C 2.566406 0 2.296875 -0.109375 2.078125 -0.328125 C 1.867188 -0.554688 1.765625 -0.820312 1.765625 -1.125 L 1.765625 -17.890625 C 1.765625 -17.890625 1.757812 -18.035156 1.75 -18.328125 C 1.738281 -18.617188 1.71875 -19 1.6875 -19.46875 C 1.65625 -19.945312 1.597656 -20.441406 1.515625 -20.953125 C 1.441406 -21.460938 1.335938 -21.921875 1.203125 -22.328125 L 4.59375 -22.328125 C 5.132812 -22.328125 5.613281 -22.242188 6.03125 -22.078125 C 6.457031 -21.910156 6.8125 -21.613281 7.09375 -21.1875 L 15.71875 -6.171875 L 15.71875 -17.890625 C 15.71875 -17.890625 15.71875 -18.035156 15.71875 -18.328125 C 15.71875 -18.617188 15.695312 -19 15.65625 -19.46875 C 15.613281 -19.945312 15.550781 -20.441406 15.46875 -20.953125 C 15.394531 -21.460938 15.289062 -21.921875 15.15625 -22.328125 Z M 16.828125 -22.328125 "/></g></g></g><g fill="#c888db" fill-opacity="1"><g transform="translate(244.529974, 209.251949)"><g><path d="M 1.96875 -22.328125 L 17.03125 -22.328125 L 16.46875 -20.921875 C 16.300781 -20.503906 16 -20.164062 15.5625 -19.90625 C 15.132812 -19.65625 14.691406 -19.53125 14.234375 -19.53125 L 8.671875 -19.53125 C 9.128906 -19.53125 9.519531 -19.367188 9.84375 -19.046875 C 10.164062 -18.722656 10.328125 -18.335938 10.328125 -17.890625 L 10.328125 -5.59375 C 10.328125 -5.21875 10.34375 -4.695312 10.375 -4.03125 C 10.414062 -3.363281 10.507812 -2.664062 10.65625 -1.9375 C 10.8125 -1.21875 11.070312 -0.570312 11.4375 0 L 8.125 0 C 7.488281 0 6.957031 -0.21875 6.53125 -0.65625 C 6.101562 -1.101562 5.890625 -1.628906 5.890625 -2.234375 L 5.890625 -19.53125 L -0.828125 -19.53125 L -0.265625 -20.953125 C -0.0859375 -21.378906 0.210938 -21.710938 0.640625 -21.953125 C 1.078125 -22.203125 1.519531 -22.328125 1.96875 -22.328125 Z M 1.96875 -22.328125 "/></g></g></g><g fill="#c888db" fill-opacity="1"><g transform="translate(260.737085, 209.251949)"><g><path d="M 6.40625 -5.59375 C 6.40625 -5.21875 6.421875 -4.695312 6.453125 -4.03125 C 6.484375 -3.363281 6.578125 -2.664062 6.734375 -1.9375 C 6.890625 -1.21875 7.15625 -0.570312 7.53125 0 L 4.171875 0 C 3.546875 0 3.015625 -0.21875 2.578125 -0.65625 C 2.148438 -1.101562 1.9375 -1.628906 1.9375 -2.234375 L 1.9375 -16.765625 C 1.9375 -17.140625 1.921875 -17.660156 1.890625 -18.328125 C 1.867188 -18.992188 1.78125 -19.6875 1.625 -20.40625 C 1.46875 -21.132812 1.203125 -21.773438 0.828125 -22.328125 L 4.171875 -22.328125 C 4.785156 -22.328125 5.3125 -22.109375 5.75 -21.671875 C 6.1875 -21.242188 6.40625 -20.71875 6.40625 -20.09375 Z M 6.40625 -5.59375 "/></g></g></g><g fill="#c888db" fill-opacity="1"><g transform="translate(269.090665, 209.251949)"><g><path d="M 6.40625 -19.5625 L 6.40625 -2.796875 C 6.78125 -2.796875 7.296875 -2.796875 7.953125 -2.796875 C 8.609375 -2.796875 9.328125 -2.796875 10.109375 -2.796875 C 10.898438 -2.796875 11.675781 -2.796875 12.4375 -2.796875 C 13.207031 -2.796875 13.894531 -2.796875 14.5 -2.796875 C 15.113281 -2.796875 15.566406 -2.796875 15.859375 -2.796875 C 15.816406 -2.679688 15.753906 -2.515625 15.671875 -2.296875 C 15.597656 -2.078125 15.519531 -1.875 15.4375 -1.6875 C 15.363281 -1.5 15.328125 -1.40625 15.328125 -1.40625 C 15.171875 -1 14.898438 -0.660156 14.515625 -0.390625 C 14.140625 -0.128906 13.722656 0 13.265625 0 L 4.171875 0 C 3.546875 0 3.015625 -0.21875 2.578125 -0.65625 C 2.148438 -1.101562 1.9375 -1.628906 1.9375 -2.234375 L 1.9375 -16.765625 C 1.9375 -17.140625 1.921875 -17.660156 1.890625 -18.328125 C 1.867188 -18.992188 1.78125 -19.6875 1.625 -20.40625 C 1.46875 -21.132812 1.203125 -21.773438 0.828125 -22.328125 L 15.890625 -22.328125 L 15.328125 -20.953125 C 15.171875 -20.535156 14.898438 -20.195312 14.515625 -19.9375 C 14.140625 -19.6875 13.722656 -19.5625 13.265625 -19.5625 Z M 9.765625 -13.421875 L 14.203125 -13.421875 L 13.65625 -12 C 13.5 -11.59375 13.195312 -11.257812 12.75 -11 C 12.3125 -10.75 11.867188 -10.625 11.421875 -10.625 L 6.96875 -10.625 L 7.53125 -12.03125 C 7.6875 -12.445312 7.984375 -12.78125 8.421875 -13.03125 C 8.867188 -13.289062 9.316406 -13.421875 9.765625 -13.421875 Z M 9.765625 -13.421875 "/></g></g></g><g fill="#c888db" fill-opacity="1"><g transform="translate(285.356609, 209.251949)"><g><path d="M 7.5625 -14.453125 C 8.46875 -13.898438 9.4375 -13.351562 10.46875 -12.8125 C 11.507812 -12.269531 12.488281 -11.6875 13.40625 -11.0625 C 14.332031 -10.4375 15.085938 -9.71875 15.671875 -8.90625 C 16.265625 -8.101562 16.5625 -7.164062 16.5625 -6.09375 C 16.5625 -4.800781 16.191406 -3.675781 15.453125 -2.71875 C 14.722656 -1.769531 13.769531 -1.035156 12.59375 -0.515625 C 11.414062 0.00390625 10.171875 0.265625 8.859375 0.265625 C 7.347656 0.265625 6.039062 0.0351562 4.9375 -0.421875 C 3.84375 -0.890625 2.957031 -1.46875 2.28125 -2.15625 C 1.601562 -2.851562 1.160156 -3.5625 0.953125 -4.28125 C 0.742188 -5 0.789062 -5.601562 1.09375 -6.09375 C 1.382812 -6.601562 1.773438 -7.054688 2.265625 -7.453125 C 2.753906 -7.859375 3.191406 -8.179688 3.578125 -8.421875 C 3.972656 -8.671875 4.171875 -8.796875 4.171875 -8.796875 C 4.210938 -7.972656 4.378906 -7.160156 4.671875 -6.359375 C 4.972656 -5.554688 5.363281 -4.820312 5.84375 -4.15625 C 6.320312 -3.5 6.863281 -2.972656 7.46875 -2.578125 C 8.082031 -2.191406 8.710938 -2 9.359375 -2 C 10.140625 -2 10.835938 -2.207031 11.453125 -2.625 C 12.078125 -3.050781 12.390625 -3.617188 12.390625 -4.328125 C 12.390625 -4.890625 12.269531 -5.375 12.03125 -5.78125 C 11.800781 -6.195312 11.421875 -6.597656 10.890625 -6.984375 C 10.359375 -7.367188 9.65625 -7.796875 8.78125 -8.265625 C 7.90625 -8.734375 6.851562 -9.332031 5.625 -10.0625 C 4.382812 -10.769531 3.445312 -11.472656 2.8125 -12.171875 C 2.175781 -12.878906 1.742188 -13.570312 1.515625 -14.25 C 1.285156 -14.925781 1.171875 -15.570312 1.171875 -16.1875 C 1.171875 -17.394531 1.515625 -18.484375 2.203125 -19.453125 C 2.890625 -20.429688 3.8125 -21.203125 4.96875 -21.765625 C 6.125 -22.335938 7.398438 -22.625 8.796875 -22.625 C 10.085938 -22.625 11.25 -22.425781 12.28125 -22.03125 C 13.3125 -21.644531 14.140625 -21.140625 14.765625 -20.515625 C 15.398438 -19.898438 15.789062 -19.253906 15.9375 -18.578125 C 16.082031 -17.898438 15.921875 -17.28125 15.453125 -16.71875 C 15.035156 -16.21875 14.546875 -15.773438 13.984375 -15.390625 C 13.429688 -15.015625 13 -14.75 12.6875 -14.59375 C 12.425781 -16.375 11.882812 -17.78125 11.0625 -18.8125 C 10.238281 -19.84375 9.257812 -20.359375 8.125 -20.359375 C 7.15625 -20.359375 6.414062 -20.097656 5.90625 -19.578125 C 5.40625 -19.054688 5.15625 -18.441406 5.15625 -17.734375 C 5.15625 -17.191406 5.363281 -16.625 5.78125 -16.03125 C 6.195312 -15.445312 6.789062 -14.921875 7.5625 -14.453125 Z M 7.5625 -14.453125 "/></g></g></g></svg>