<svg xmlns="http://www.w3.org/2000/svg" xmlns:xlink="http://www.w3.org/1999/xlink" width="500" zoomAndPan="magnify" viewBox="0 0 375 374.999991" height="500" preserveAspectRatio="xMidYMid meet" version="1.0"><defs><g/><clipPath id="9cfa92e270"><path d="M 112.5 103.484375 L 262 103.484375 L 262 196 L 112.5 196 Z M 112.5 103.484375 " clip-rule="nonzero"/></clipPath><clipPath id="913fc5492e"><path d="M 136.933594 104.65625 L 183.601562 104.65625 L 183.601562 167.132812 L 136.933594 167.132812 Z M 136.933594 104.65625 " clip-rule="nonzero"/></clipPath><clipPath id="b12366353e"><path d="M 132.488281 132 L 148 132 L 148 134 L 132.488281 134 Z M 132.488281 132 " clip-rule="nonzero"/></clipPath><clipPath id="a83cac4ecb"><path d="M 162 103.484375 L 164 103.484375 L 164 121 L 162 121 Z M 162 103.484375 " clip-rule="nonzero"/></clipPath><clipPath id="61b489ba69"><path d="M 177.457031 133.09375 L 192.214844 133.09375 L 192.214844 134.617188 L 177.457031 134.617188 Z M 177.457031 133.09375 " clip-rule="nonzero"/></clipPath></defs><rect x="-37.5" width="450" fill="#ffffff" y="-37.499999" height="449.999989" fill-opacity="1"/><rect x="-37.5" width="450" fill="#2e2c2c" y="-37.499999" height="449.999989" fill-opacity="1"/><g clip-path="url(#9cfa92e270)"><path fill="#c888db" d="M 112.664062 103.613281 C 118.761719 103.613281 124.65625 103.613281 130.796875 103.613281 C 130.796875 104.359375 130.796875 105.03125 130.796875 105.703125 C 130.796875 123.558594 130.769531 141.417969 130.832031 159.273438 C 130.84375 161.652344 131.070312 164.085938 131.613281 166.398438 C 133.261719 173.453125 138.4375 177.769531 145.652344 178.6875 C 150.316406 179.277344 154.652344 178.441406 158.839844 176.449219 C 164.808594 173.613281 170.03125 169.65625 175.238281 165.667969 C 182.769531 159.902344 190.234375 154.039062 198.527344 149.359375 C 205.210938 145.585938 212.230469 142.699219 219.875 141.664062 C 223.457031 141.179688 227.105469 141.234375 230.691406 140.792969 C 234.898438 140.28125 238.445312 138.457031 239.925781 134.207031 C 241.433594 129.886719 241.164062 125.652344 237.953125 122.050781 C 235.738281 119.566406 232.730469 118.472656 229.519531 118.367188 C 223.5 118.171875 217.476562 118.265625 211.453125 118.199219 C 210.269531 118.1875 210.375 118.9375 210.375 119.695312 C 210.375 125.503906 210.320312 131.316406 210.410156 137.125 C 210.4375 138.730469 209.992188 139.410156 208.410156 140.082031 C 203.574219 142.140625 198.886719 144.535156 194.144531 146.816406 C 193.574219 147.089844 193.042969 147.445312 192.246094 147.914062 C 192.199219 147.207031 192.140625 146.710938 192.140625 146.214844 C 192.128906 132.675781 192.128906 119.132812 192.125 105.59375 C 192.125 103.546875 192.136719 103.539062 194.230469 103.539062 C 206.28125 103.535156 218.324219 103.496094 230.375 103.546875 C 236.25 103.574219 241.925781 104.613281 247.242188 107.289062 C 262.097656 114.765625 261.9375 133.167969 254.035156 141.40625 C 252.71875 142.78125 251.199219 144 249.613281 145.050781 C 248.027344 146.101562 246.242188 146.84375 244.40625 147.792969 C 244.792969 147.957031 245.128906 148.140625 245.484375 148.246094 C 255.824219 151.273438 262.382812 161.503906 261.324219 172.179688 C 260.210938 183.410156 252.390625 191.351562 239.953125 193.667969 C 237.296875 194.160156 234.554688 194.417969 231.851562 194.433594 C 219.21875 194.511719 206.585938 194.46875 193.949219 194.464844 C 193.425781 194.464844 192.90625 194.417969 192.136719 194.382812 C 192.136719 193.625 192.136719 192.957031 192.136719 192.289062 C 192.136719 187.96875 192.113281 183.652344 192.164062 179.332031 C 192.167969 178.703125 192.347656 177.871094 192.765625 177.472656 C 197.734375 172.789062 202.804688 168.21875 208.773438 164.796875 C 209.175781 164.570312 209.609375 164.386719 210.328125 164.039062 C 210.328125 169.332031 210.328125 174.394531 210.328125 179.53125 C 210.984375 179.59375 211.394531 179.664062 211.804688 179.664062 C 217.722656 179.667969 223.640625 179.6875 229.558594 179.640625 C 230.828125 179.632812 232.113281 179.480469 233.363281 179.230469 C 239.222656 178.058594 242.679688 174.121094 242.910156 168.457031 C 243.160156 162.136719 240.066406 157.542969 234.199219 155.925781 C 228.765625 154.425781 223.308594 155.097656 217.925781 156.359375 C 209.503906 158.328125 202.496094 162.921875 196.09375 168.527344 C 190.601562 173.335938 185.3125 178.382812 179.757812 183.113281 C 174.878906 187.261719 169.722656 191.089844 163.5 193.0625 C 152.6875 196.488281 141.9375 196.445312 131.488281 191.78125 C 121.203125 187.191406 115.398438 178.976562 113.390625 168.03125 C 112.910156 165.429688 112.707031 162.742188 112.699219 160.09375 C 112.640625 141.753906 112.667969 123.417969 112.664062 105.078125 C 112.664062 104.65625 112.664062 104.234375 112.664062 103.613281 Z M 112.664062 103.613281 " fill-opacity="1" fill-rule="nonzero"/></g><g clip-path="url(#913fc5492e)"><path fill="#8ec5cd" d="M 151.011719 135.714844 L 159.671875 135.902344 L 136.972656 167.132812 L 173.488281 131.601562 L 164.753906 131.382812 L 183.558594 104.671875 L 151.011719 135.714844 " fill-opacity="1" fill-rule="nonzero"/></g><path fill="#8ec5cd" d="M 152.394531 155.898438 C 152.339844 155.871094 152.285156 155.847656 152.230469 155.824219 C 151.972656 155.707031 151.675781 155.824219 151.5625 156.078125 L 149.871094 159.90625 C 149.757812 160.160156 149.875 160.457031 150.128906 160.570312 L 150.464844 160.71875 C 150.71875 160.832031 151.019531 160.71875 151.128906 160.464844 L 152.820312 156.636719 C 152.933594 156.378906 152.820312 156.082031 152.5625 155.96875 C 152.507812 155.945312 152.449219 155.921875 152.394531 155.898438 " fill-opacity="1" fill-rule="nonzero"/><path fill="#8ec5cd" d="M 170.785156 157.007812 L 172.316406 160.960938 C 172.414062 161.21875 172.707031 161.347656 172.964844 161.246094 L 173.3125 161.113281 C 173.570312 161.011719 173.699219 160.722656 173.597656 160.460938 L 172.070312 156.507812 C 171.96875 156.246094 171.671875 156.121094 171.410156 156.226562 C 171.300781 156.269531 171.1875 156.3125 171.078125 156.355469 C 170.816406 156.457031 170.683594 156.75 170.785156 157.007812 " fill-opacity="1" fill-rule="nonzero"/><path fill="#8ec5cd" d="M 161.195312 148.734375 L 161.101562 162.675781 C 161.101562 162.953125 161.320312 163.179688 161.597656 163.183594 L 161.964844 163.191406 C 162.246094 163.195312 162.476562 162.972656 162.480469 162.691406 L 162.574219 148.75 C 162.574219 148.46875 162.351562 148.246094 162.074219 148.242188 C 161.953125 148.242188 161.832031 148.238281 161.714844 148.234375 C 161.429688 148.230469 161.199219 148.453125 161.195312 148.734375 " fill-opacity="1" fill-rule="nonzero"/><path fill="#8ec5cd" d="M 143.757812 150.285156 L 140.738281 153.191406 C 140.535156 153.386719 140.53125 153.703125 140.722656 153.902344 L 140.980469 154.171875 C 141.171875 154.371094 141.492188 154.378906 141.691406 154.183594 L 144.710938 151.277344 C 144.914062 151.085938 144.917969 150.765625 144.722656 150.5625 C 144.640625 150.476562 144.558594 150.390625 144.476562 150.304688 C 144.28125 150.101562 143.960938 150.089844 143.757812 150.285156 " fill-opacity="1" fill-rule="nonzero"/><path fill="#8ec5cd" d="M 179.242188 151.878906 L 182.214844 154.96875 C 182.410156 155.167969 182.726562 155.175781 182.929688 154.980469 L 183.195312 154.722656 C 183.394531 154.53125 183.402344 154.210938 183.207031 154.011719 L 180.234375 150.921875 C 180.039062 150.71875 179.714844 150.714844 179.515625 150.914062 C 179.429688 150.996094 179.34375 151.082031 179.257812 151.164062 C 179.058594 151.355469 179.050781 151.675781 179.242188 151.878906 " fill-opacity="1" fill-rule="nonzero"/><g clip-path="url(#b12366353e)"><path fill="#8ec5cd" d="M 147.214844 132.175781 L 133.027344 132.078125 C 132.753906 132.078125 132.527344 132.296875 132.519531 132.574219 L 132.515625 132.941406 C 132.507812 133.222656 132.734375 133.453125 133.015625 133.457031 L 147.199219 133.550781 C 147.476562 133.554688 147.703125 133.332031 147.707031 133.054688 C 147.710938 132.933594 147.710938 132.816406 147.714844 132.695312 C 147.726562 132.414062 147.5 132.175781 147.214844 132.175781 " fill-opacity="1" fill-rule="nonzero"/></g><path fill="#8ec5cd" d="M 138.699219 141.761719 L 134.746094 143.289062 C 134.484375 143.390625 134.355469 143.683594 134.457031 143.941406 L 134.589844 144.289062 C 134.691406 144.546875 134.984375 144.675781 135.242188 144.574219 L 139.191406 143.046875 C 139.453125 142.945312 139.582031 142.652344 139.480469 142.390625 C 139.4375 142.28125 139.394531 142.167969 139.351562 142.054688 C 139.253906 141.792969 138.960938 141.660156 138.699219 141.761719 " fill-opacity="1" fill-rule="nonzero"/><path fill="#8ec5cd" d="M 172.191406 111.109375 C 172.246094 111.132812 172.300781 111.15625 172.355469 111.183594 C 172.609375 111.296875 172.910156 111.179688 173.023438 110.925781 L 174.859375 106.773438 C 174.96875 106.519531 174.855469 106.222656 174.601562 106.109375 L 174.261719 105.960938 C 174.007812 105.847656 173.710938 105.964844 173.597656 106.21875 L 171.761719 110.371094 C 171.652344 110.625 171.765625 110.921875 172.023438 111.035156 C 172.078125 111.058594 172.132812 111.082031 172.191406 111.109375 " fill-opacity="1" fill-rule="nonzero"/><path fill="#8ec5cd" d="M 154.035156 109.90625 L 152.414062 105.722656 C 152.3125 105.460938 152.023438 105.332031 151.761719 105.433594 L 151.417969 105.566406 C 151.15625 105.667969 151.027344 105.960938 151.128906 106.21875 L 152.75 110.402344 C 152.847656 110.664062 153.140625 110.789062 153.402344 110.6875 C 153.515625 110.644531 153.625 110.601562 153.738281 110.5625 C 154 110.464844 154.136719 110.167969 154.035156 109.90625 " fill-opacity="1" fill-rule="nonzero"/><path fill="#8ec5cd" d="M 145.578125 114.902344 L 142.511719 111.714844 C 142.320312 111.511719 142 111.507812 141.800781 111.699219 L 141.535156 111.957031 C 141.332031 112.148438 141.328125 112.46875 141.519531 112.667969 L 144.585938 115.855469 C 144.777344 116.054688 145.097656 116.058594 145.300781 115.867188 C 145.386719 115.785156 145.472656 115.703125 145.558594 115.621094 C 145.765625 115.425781 145.777344 115.105469 145.578125 114.902344 " fill-opacity="1" fill-rule="nonzero"/><g clip-path="url(#a83cac4ecb)"><path fill="#8ec5cd" d="M 163.527344 120.136719 L 163.625 104.003906 C 163.628906 103.726562 163.40625 103.503906 163.132812 103.496094 L 162.761719 103.488281 C 162.480469 103.484375 162.25 103.710938 162.25 103.992188 L 162.148438 120.125 C 162.148438 120.402344 162.371094 120.625 162.648438 120.628906 C 162.765625 120.632812 162.886719 120.632812 163.003906 120.636719 C 163.289062 120.644531 163.523438 120.421875 163.527344 120.136719 " fill-opacity="1" fill-rule="nonzero"/></g><path fill="#8ec5cd" d="M 139.230469 123.871094 C 139.484375 123.980469 139.78125 123.863281 139.894531 123.609375 C 139.898438 123.609375 139.898438 123.605469 139.898438 123.605469 C 139.945312 123.496094 139.996094 123.390625 140.042969 123.28125 C 140.160156 123.027344 140.046875 122.722656 139.789062 122.609375 L 135.796875 120.847656 C 135.542969 120.734375 135.246094 120.847656 135.132812 121.105469 L 134.984375 121.441406 C 134.871094 121.695312 134.988281 121.992188 135.242188 122.105469 L 139.230469 123.871094 " fill-opacity="1" fill-rule="nonzero"/><g clip-path="url(#61b489ba69)"><path fill="#8ec5cd" d="M 177.960938 134.503906 L 191.699219 134.601562 C 191.976562 134.605469 192.203125 134.382812 192.207031 134.109375 L 192.214844 133.738281 C 192.21875 133.457031 191.996094 133.226562 191.714844 133.222656 L 177.972656 133.125 C 177.695312 133.125 177.46875 133.351562 177.464844 133.628906 C 177.464844 133.75 177.464844 133.867188 177.460938 133.988281 C 177.457031 134.269531 177.679688 134.503906 177.960938 134.503906 " fill-opacity="1" fill-rule="nonzero"/></g><path fill="#8ec5cd" d="M 184.6875 143.398438 C 184.6875 143.402344 184.6875 143.402344 184.683594 143.402344 C 184.570312 143.660156 184.683594 143.957031 184.941406 144.070312 L 188.929688 145.835938 C 189.183594 145.945312 189.480469 145.832031 189.59375 145.578125 L 189.742188 145.238281 C 189.855469 144.984375 189.742188 144.6875 189.488281 144.574219 L 185.496094 142.808594 C 185.238281 142.695312 184.9375 142.816406 184.828125 143.074219 C 184.78125 143.183594 184.734375 143.292969 184.6875 143.398438 " fill-opacity="1" fill-rule="nonzero"/><path fill="#8ec5cd" d="M 185.800781 125.007812 L 189.984375 123.390625 C 190.242188 123.289062 190.371094 122.996094 190.269531 122.738281 L 190.136719 122.394531 C 190.039062 122.132812 189.746094 122.003906 189.484375 122.105469 L 185.300781 123.726562 C 185.039062 123.828125 184.910156 124.125 185.015625 124.382812 C 185.058594 124.496094 185.105469 124.605469 185.148438 124.71875 C 185.246094 124.980469 185.539062 125.109375 185.800781 125.007812 " fill-opacity="1" fill-rule="nonzero"/><path fill="#8ec5cd" d="M 180.734375 116.621094 L 183.992188 113.488281 C 184.191406 113.296875 184.199219 112.976562 184.003906 112.777344 L 183.75 112.511719 C 183.554688 112.308594 183.238281 112.304688 183.035156 112.496094 L 179.777344 115.628906 C 179.578125 115.824219 179.574219 116.144531 179.769531 116.347656 C 179.855469 116.433594 179.9375 116.519531 180.019531 116.605469 C 180.210938 116.808594 180.53125 116.816406 180.734375 116.621094 " fill-opacity="1" fill-rule="nonzero"/><g fill="#8ec5cd" fill-opacity="1"><g transform="translate(94.169924, 231.883286)"><g><path d="M 7.84375 -3.421875 L 20.8125 -3.421875 C 20.59375 -2.773438 20.351562 -2.175781 20.09375 -1.625 C 19.613281 -0.632812 18.785156 -0.101562 17.609375 -0.03125 L 17.609375 0 L 4.421875 0 C 3.847656 0 3.363281 -0.203125 2.96875 -0.609375 C 2.570312 -1.015625 2.375 -1.492188 2.375 -2.046875 L 2.375 -20.515625 C 2.375 -20.972656 2.351562 -21.609375 2.3125 -22.421875 C 2.28125 -23.242188 2.164062 -24.097656 1.96875 -24.984375 C 1.78125 -25.867188 1.460938 -26.648438 1.015625 -27.328125 L 5.109375 -27.328125 C 5.859375 -27.328125 6.5 -27.0625 7.03125 -26.53125 C 7.570312 -26 7.84375 -25.351562 7.84375 -24.59375 Z M 7.84375 -3.421875 "/></g></g></g><g fill="#8ec5cd" fill-opacity="1"><g transform="translate(114.725961, 231.883286)"><g><path d="M 7.84375 -6.84375 C 7.84375 -6.382812 7.859375 -5.742188 7.890625 -4.921875 C 7.929688 -4.109375 8.046875 -3.257812 8.234375 -2.375 C 8.429688 -1.488281 8.757812 -0.695312 9.21875 0 L 5.109375 0 C 4.335938 0 3.6875 -0.269531 3.15625 -0.8125 C 2.632812 -1.351562 2.375 -1.992188 2.375 -2.734375 L 2.375 -20.515625 C 2.375 -20.972656 2.351562 -21.609375 2.3125 -22.421875 C 2.28125 -23.242188 2.164062 -24.097656 1.96875 -24.984375 C 1.78125 -25.867188 1.460938 -26.648438 1.015625 -27.328125 L 5.109375 -27.328125 C 5.859375 -27.328125 6.5 -27.0625 7.03125 -26.53125 C 7.570312 -26 7.84375 -25.351562 7.84375 -24.59375 Z M 7.84375 -6.84375 "/></g></g></g><g fill="#8ec5cd" fill-opacity="1"><g transform="translate(124.949986, 231.883286)"><g><path d="M 23.21875 -4.78125 C 23.21875 -4.113281 23.257812 -3.359375 23.34375 -2.515625 C 23.425781 -1.679688 23.722656 -0.832031 24.234375 0.03125 L 20.8125 0.03125 C 20.0625 0.03125 19.414062 -0.234375 18.875 -0.765625 C 18.34375 -1.304688 18.078125 -1.953125 18.078125 -2.703125 L 18.078125 -4.46875 C 17.734375 -3.71875 17.253906 -2.96875 16.640625 -2.21875 C 16.035156 -1.476562 15.285156 -0.863281 14.390625 -0.375 C 13.503906 0.113281 12.488281 0.359375 11.34375 0.359375 C 9.519531 0.359375 7.957031 0.0078125 6.65625 -0.6875 C 5.363281 -1.382812 4.296875 -2.347656 3.453125 -3.578125 C 2.617188 -4.816406 2.003906 -6.238281 1.609375 -7.84375 C 1.210938 -9.457031 1.015625 -11.175781 1.015625 -13 C 1.015625 -14.820312 1.285156 -16.601562 1.828125 -18.34375 C 2.378906 -20.082031 3.195312 -21.648438 4.28125 -23.046875 C 5.363281 -24.453125 6.691406 -25.578125 8.265625 -26.421875 C 9.835938 -27.265625 11.644531 -27.6875 13.6875 -27.6875 C 15.789062 -27.6875 17.515625 -27.398438 18.859375 -26.828125 C 20.203125 -26.265625 21.21875 -25.546875 21.90625 -24.671875 C 22.59375 -23.796875 22.992188 -22.894531 23.109375 -21.96875 C 23.234375 -21.050781 23.117188 -20.21875 22.765625 -19.46875 C 22.421875 -18.726562 21.898438 -18.203125 21.203125 -17.890625 C 20.429688 -17.578125 19.6875 -17.273438 18.96875 -16.984375 C 18.25 -16.703125 17.648438 -16.476562 17.171875 -16.3125 C 16.691406 -16.144531 16.453125 -16.0625 16.453125 -16.0625 C 16.910156 -16.507812 17.269531 -17.097656 17.53125 -17.828125 C 17.789062 -18.566406 17.925781 -19.34375 17.9375 -20.15625 C 17.957031 -20.976562 17.820312 -21.753906 17.53125 -22.484375 C 17.238281 -23.210938 16.773438 -23.804688 16.140625 -24.265625 C 15.503906 -24.722656 14.6875 -24.953125 13.6875 -24.953125 C 12.644531 -24.953125 11.640625 -24.578125 10.671875 -23.828125 C 9.703125 -23.085938 8.90625 -21.863281 8.28125 -20.15625 C 7.65625 -18.457031 7.34375 -16.175781 7.34375 -13.3125 C 7.34375 -11.28125 7.5 -9.597656 7.8125 -8.265625 C 8.125 -6.929688 8.550781 -5.882812 9.09375 -5.125 C 9.632812 -4.375 10.25 -3.84375 10.9375 -3.53125 C 11.632812 -3.21875 12.367188 -3.0625 13.140625 -3.0625 C 13.910156 -3.0625 14.597656 -3.257812 15.203125 -3.65625 C 15.816406 -4.050781 16.335938 -4.539062 16.765625 -5.125 C 17.203125 -5.71875 17.53125 -6.3125 17.75 -6.90625 C 17.96875 -7.507812 18.078125 -8.003906 18.078125 -8.390625 L 18.078125 -10.625 L 11.953125 -10.625 C 12.285156 -11.414062 12.578125 -12 12.828125 -12.375 C 13.085938 -12.757812 13.335938 -13.007812 13.578125 -13.125 C 13.816406 -13.25 14.09375 -13.3125 14.40625 -13.3125 L 21.28125 -13.3125 C 21.800781 -13.3125 22.253906 -13.125 22.640625 -12.75 C 23.023438 -12.382812 23.21875 -11.925781 23.21875 -11.375 Z M 23.21875 -4.78125 "/></g></g></g><g fill="#8ec5cd" fill-opacity="1"><g transform="translate(150.150034, 231.883286)"><g><path d="M 7.84375 -24.59375 L 7.84375 -6.84375 C 7.84375 -6.382812 7.859375 -5.742188 7.890625 -4.921875 C 7.929688 -4.109375 8.046875 -3.257812 8.234375 -2.375 C 8.429688 -1.488281 8.757812 -0.695312 9.21875 0 L 5.109375 0 C 4.335938 0 3.6875 -0.269531 3.15625 -0.8125 C 2.632812 -1.351562 2.375 -1.992188 2.375 -2.734375 L 2.375 -20.515625 C 2.375 -20.972656 2.351562 -21.609375 2.3125 -22.421875 C 2.28125 -23.242188 2.164062 -24.097656 1.96875 -24.984375 C 1.78125 -25.867188 1.460938 -26.648438 1.015625 -27.328125 L 5.109375 -27.328125 C 5.859375 -27.328125 6.5 -27.0625 7.03125 -26.53125 C 7.570312 -26 7.84375 -25.351562 7.84375 -24.59375 Z M 23.875 -6.84375 C 23.875 -6.382812 23.890625 -5.742188 23.921875 -4.921875 C 23.953125 -4.109375 24.0625 -3.257812 24.25 -2.375 C 24.445312 -1.488281 24.773438 -0.695312 25.234375 0 L 21.125 0 C 20.363281 0 19.71875 -0.269531 19.1875 -0.8125 C 18.65625 -1.351562 18.390625 -1.992188 18.390625 -2.734375 L 18.390625 -20.515625 C 18.390625 -20.972656 18.367188 -21.609375 18.328125 -22.421875 C 18.296875 -23.242188 18.1875 -24.097656 18 -24.984375 C 17.8125 -25.867188 17.488281 -26.648438 17.03125 -27.328125 L 21.125 -27.328125 C 21.875 -27.328125 22.519531 -27.0625 23.0625 -26.53125 C 23.601562 -26 23.875 -25.351562 23.875 -24.59375 Z M 11.953125 -16.421875 L 17.71875 -16.421875 L 17.03125 -14.6875 C 16.8125 -14.1875 16.4375 -13.78125 15.90625 -13.46875 C 15.382812 -13.15625 14.847656 -13 14.296875 -13 L 8.53125 -13 L 9.21875 -14.71875 C 9.40625 -15.226562 9.769531 -15.640625 10.3125 -15.953125 C 10.851562 -16.265625 11.398438 -16.421875 11.953125 -16.421875 Z M 11.953125 -16.421875 "/></g></g></g><g fill="#8ec5cd" fill-opacity="1"><g transform="translate(176.394081, 231.883286)"><g><path d="M 2.40625 -27.328125 L 20.84375 -27.328125 L 20.15625 -25.59375 C 19.945312 -25.09375 19.578125 -24.6875 19.046875 -24.375 C 18.515625 -24.0625 17.972656 -23.90625 17.421875 -23.90625 L 10.625 -23.90625 C 11.175781 -23.90625 11.648438 -23.707031 12.046875 -23.3125 C 12.441406 -22.914062 12.640625 -22.441406 12.640625 -21.890625 L 12.640625 -6.84375 C 12.640625 -6.382812 12.660156 -5.742188 12.703125 -4.921875 C 12.753906 -4.109375 12.867188 -3.257812 13.046875 -2.375 C 13.222656 -1.488281 13.539062 -0.695312 14 0 L 9.9375 0 C 9.164062 0 8.515625 -0.269531 7.984375 -0.8125 C 7.460938 -1.351562 7.203125 -1.992188 7.203125 -2.734375 L 7.203125 -23.90625 L -1.015625 -23.90625 L -0.328125 -25.625 C -0.109375 -26.15625 0.257812 -26.570312 0.78125 -26.875 C 1.3125 -27.175781 1.851562 -27.328125 2.40625 -27.328125 Z M 2.40625 -27.328125 "/></g></g></g><g fill="#8ec5cd" fill-opacity="1"><g transform="translate(196.230124, 231.883286)"><g><path d="M 20.59375 -27.328125 C 21.164062 -27.328125 21.648438 -27.128906 22.046875 -26.734375 C 22.441406 -26.335938 22.640625 -25.847656 22.640625 -25.265625 L 22.640625 -3.421875 L 17.671875 0.328125 L 5.578125 -20.34375 L 5.578125 -5.46875 C 5.578125 -5.46875 5.582031 -5.28125 5.59375 -4.90625 C 5.601562 -4.539062 5.625 -4.070312 5.65625 -3.5 C 5.695312 -2.9375 5.765625 -2.34375 5.859375 -1.71875 C 5.960938 -1.101562 6.097656 -0.53125 6.265625 0 L 3.53125 0 C 3.144531 0 2.816406 -0.132812 2.546875 -0.40625 C 2.285156 -0.6875 2.15625 -1.007812 2.15625 -1.375 L 2.15625 -21.890625 C 2.15625 -21.890625 2.148438 -22.066406 2.140625 -22.421875 C 2.128906 -22.785156 2.101562 -23.253906 2.0625 -23.828125 C 2.03125 -24.410156 1.96875 -25.007812 1.875 -25.625 C 1.78125 -26.25 1.644531 -26.816406 1.46875 -27.328125 L 5.609375 -27.328125 C 6.285156 -27.328125 6.878906 -27.222656 7.390625 -27.015625 C 7.910156 -26.816406 8.335938 -26.453125 8.671875 -25.921875 L 19.21875 -7.5625 L 19.21875 -21.890625 C 19.21875 -21.890625 19.21875 -22.066406 19.21875 -22.421875 C 19.21875 -22.785156 19.191406 -23.253906 19.140625 -23.828125 C 19.097656 -24.410156 19.03125 -25.007812 18.9375 -25.625 C 18.84375 -26.25 18.710938 -26.816406 18.546875 -27.328125 Z M 20.59375 -27.328125 "/></g></g></g><g fill="#8ec5cd" fill-opacity="1"><g transform="translate(220.818178, 231.883286)"><g><path d="M 7.84375 -6.84375 C 7.84375 -6.382812 7.859375 -5.742188 7.890625 -4.921875 C 7.929688 -4.109375 8.046875 -3.257812 8.234375 -2.375 C 8.429688 -1.488281 8.757812 -0.695312 9.21875 0 L 5.109375 0 C 4.335938 0 3.6875 -0.269531 3.15625 -0.8125 C 2.632812 -1.351562 2.375 -1.992188 2.375 -2.734375 L 2.375 -20.515625 C 2.375 -20.972656 2.351562 -21.609375 2.3125 -22.421875 C 2.28125 -23.242188 2.164062 -24.097656 1.96875 -24.984375 C 1.78125 -25.867188 1.460938 -26.648438 1.015625 -27.328125 L 5.109375 -27.328125 C 5.859375 -27.328125 6.5 -27.0625 7.03125 -26.53125 C 7.570312 -26 7.84375 -25.351562 7.84375 -24.59375 Z M 7.84375 -6.84375 "/></g></g></g><g fill="#8ec5cd" fill-opacity="1"><g transform="translate(231.042203, 231.883286)"><g><path d="M 20.59375 -27.328125 C 21.164062 -27.328125 21.648438 -27.128906 22.046875 -26.734375 C 22.441406 -26.335938 22.640625 -25.847656 22.640625 -25.265625 L 22.640625 -3.421875 L 17.671875 0.328125 L 5.578125 -20.34375 L 5.578125 -5.46875 C 5.578125 -5.46875 5.582031 -5.28125 5.59375 -4.90625 C 5.601562 -4.539062 5.625 -4.070312 5.65625 -3.5 C 5.695312 -2.9375 5.765625 -2.34375 5.859375 -1.71875 C 5.960938 -1.101562 6.097656 -0.53125 6.265625 0 L 3.53125 0 C 3.144531 0 2.816406 -0.132812 2.546875 -0.40625 C 2.285156 -0.6875 2.15625 -1.007812 2.15625 -1.375 L 2.15625 -21.890625 C 2.15625 -21.890625 2.148438 -22.066406 2.140625 -22.421875 C 2.128906 -22.785156 2.101562 -23.253906 2.0625 -23.828125 C 2.03125 -24.410156 1.96875 -25.007812 1.875 -25.625 C 1.78125 -26.25 1.644531 -26.816406 1.46875 -27.328125 L 5.609375 -27.328125 C 6.285156 -27.328125 6.878906 -27.222656 7.390625 -27.015625 C 7.910156 -26.816406 8.335938 -26.453125 8.671875 -25.921875 L 19.21875 -7.5625 L 19.21875 -21.890625 C 19.21875 -21.890625 19.21875 -22.066406 19.21875 -22.421875 C 19.21875 -22.785156 19.191406 -23.253906 19.140625 -23.828125 C 19.097656 -24.410156 19.03125 -25.007812 18.9375 -25.625 C 18.84375 -26.25 18.710938 -26.816406 18.546875 -27.328125 Z M 20.59375 -27.328125 "/></g></g></g><g fill="#8ec5cd" fill-opacity="1"><g transform="translate(255.630256, 231.883286)"><g><path d="M 23.21875 -4.78125 C 23.21875 -4.113281 23.257812 -3.359375 23.34375 -2.515625 C 23.425781 -1.679688 23.722656 -0.832031 24.234375 0.03125 L 20.8125 0.03125 C 20.0625 0.03125 19.414062 -0.234375 18.875 -0.765625 C 18.34375 -1.304688 18.078125 -1.953125 18.078125 -2.703125 L 18.078125 -4.46875 C 17.734375 -3.71875 17.253906 -2.96875 16.640625 -2.21875 C 16.035156 -1.476562 15.285156 -0.863281 14.390625 -0.375 C 13.503906 0.113281 12.488281 0.359375 11.34375 0.359375 C 9.519531 0.359375 7.957031 0.0078125 6.65625 -0.6875 C 5.363281 -1.382812 4.296875 -2.347656 3.453125 -3.578125 C 2.617188 -4.816406 2.003906 -6.238281 1.609375 -7.84375 C 1.210938 -9.457031 1.015625 -11.175781 1.015625 -13 C 1.015625 -14.820312 1.285156 -16.601562 1.828125 -18.34375 C 2.378906 -20.082031 3.195312 -21.648438 4.28125 -23.046875 C 5.363281 -24.453125 6.691406 -25.578125 8.265625 -26.421875 C 9.835938 -27.265625 11.644531 -27.6875 13.6875 -27.6875 C 15.789062 -27.6875 17.515625 -27.398438 18.859375 -26.828125 C 20.203125 -26.265625 21.21875 -25.546875 21.90625 -24.671875 C 22.59375 -23.796875 22.992188 -22.894531 23.109375 -21.96875 C 23.234375 -21.050781 23.117188 -20.21875 22.765625 -19.46875 C 22.421875 -18.726562 21.898438 -18.203125 21.203125 -17.890625 C 20.429688 -17.578125 19.6875 -17.273438 18.96875 -16.984375 C 18.25 -16.703125 17.648438 -16.476562 17.171875 -16.3125 C 16.691406 -16.144531 16.453125 -16.0625 16.453125 -16.0625 C 16.910156 -16.507812 17.269531 -17.097656 17.53125 -17.828125 C 17.789062 -18.566406 17.925781 -19.34375 17.9375 -20.15625 C 17.957031 -20.976562 17.820312 -21.753906 17.53125 -22.484375 C 17.238281 -23.210938 16.773438 -23.804688 16.140625 -24.265625 C 15.503906 -24.722656 14.6875 -24.953125 13.6875 -24.953125 C 12.644531 -24.953125 11.640625 -24.578125 10.671875 -23.828125 C 9.703125 -23.085938 8.90625 -21.863281 8.28125 -20.15625 C 7.65625 -18.457031 7.34375 -16.175781 7.34375 -13.3125 C 7.34375 -11.28125 7.5 -9.597656 7.8125 -8.265625 C 8.125 -6.929688 8.550781 -5.882812 9.09375 -5.125 C 9.632812 -4.375 10.25 -3.84375 10.9375 -3.53125 C 11.632812 -3.21875 12.367188 -3.0625 13.140625 -3.0625 C 13.910156 -3.0625 14.597656 -3.257812 15.203125 -3.65625 C 15.816406 -4.050781 16.335938 -4.539062 16.765625 -5.125 C 17.203125 -5.71875 17.53125 -6.3125 17.75 -6.90625 C 17.96875 -7.507812 18.078125 -8.003906 18.078125 -8.390625 L 18.078125 -10.625 L 11.953125 -10.625 C 12.285156 -11.414062 12.578125 -12 12.828125 -12.375 C 13.085938 -12.757812 13.335938 -13.007812 13.578125 -13.125 C 13.816406 -13.25 14.09375 -13.3125 14.40625 -13.3125 L 21.28125 -13.3125 C 21.800781 -13.3125 22.253906 -13.125 22.640625 -12.75 C 23.023438 -12.382812 23.21875 -11.925781 23.21875 -11.375 Z M 23.21875 -4.78125 "/></g></g></g><g fill="#c888db" fill-opacity="1"><g transform="translate(102.115236, 267.883283)"><g><path d="M 18 -14.515625 C 19.394531 -13.835938 20.5 -12.929688 21.3125 -11.796875 C 22.125 -10.671875 22.53125 -9.351562 22.53125 -7.84375 C 22.53125 -6.5 22.175781 -5.226562 21.46875 -4.03125 C 20.757812 -2.832031 19.671875 -1.859375 18.203125 -1.109375 C 16.742188 -0.367188 14.890625 0 12.640625 0 L 5.109375 0 C 4.335938 0 3.6875 -0.269531 3.15625 -0.8125 C 2.632812 -1.351562 2.375 -1.992188 2.375 -2.734375 L 2.375 -20.484375 C 2.375 -20.941406 2.351562 -21.578125 2.3125 -22.390625 C 2.28125 -23.203125 2.164062 -24.054688 1.96875 -24.953125 C 1.78125 -25.859375 1.460938 -26.648438 1.015625 -27.328125 L 10.90625 -27.328125 C 11.601562 -27.328125 12.394531 -27.296875 13.28125 -27.234375 C 14.164062 -27.171875 15.066406 -27.019531 15.984375 -26.78125 C 16.898438 -26.539062 17.753906 -26.160156 18.546875 -25.640625 C 19.335938 -25.128906 19.972656 -24.429688 20.453125 -23.546875 C 20.929688 -22.660156 21.171875 -21.53125 21.171875 -20.15625 C 21.171875 -18.644531 20.863281 -17.4375 20.25 -16.53125 C 19.632812 -15.632812 18.882812 -14.960938 18 -14.515625 Z M 12.640625 -2.734375 C 13.429688 -2.734375 14.160156 -2.898438 14.828125 -3.234375 C 15.503906 -3.578125 16.046875 -4.117188 16.453125 -4.859375 C 16.859375 -5.597656 17.0625 -6.59375 17.0625 -7.84375 C 17.0625 -8.875 16.910156 -9.800781 16.609375 -10.625 C 16.304688 -11.457031 15.734375 -12.113281 14.890625 -12.59375 C 14.054688 -13.070312 12.847656 -13.3125 11.265625 -13.3125 L 8.53125 -13.3125 C 8.863281 -14.0625 9.125 -14.601562 9.3125 -14.9375 C 9.507812 -15.269531 9.703125 -15.476562 9.890625 -15.5625 C 10.085938 -15.65625 10.367188 -15.710938 10.734375 -15.734375 L 11.59375 -15.734375 C 12.5 -15.734375 13.257812 -15.835938 13.875 -16.046875 C 14.488281 -16.265625 14.945312 -16.691406 15.25 -17.328125 C 15.550781 -17.960938 15.703125 -18.90625 15.703125 -20.15625 C 15.703125 -21.40625 15.488281 -22.347656 15.0625 -22.984375 C 14.644531 -23.617188 14.078125 -24.046875 13.359375 -24.265625 C 12.640625 -24.484375 11.820312 -24.59375 10.90625 -24.59375 L 7.84375 -24.59375 L 7.84375 -2.734375 Z M 12.640625 -2.734375 "/></g></g></g><g fill="#c888db" fill-opacity="1"><g transform="translate(125.623287, 267.883283)"><g><path d="M 13.96875 -27.6875 C 16.175781 -27.6875 18.09375 -27.300781 19.71875 -26.53125 C 21.351562 -25.757812 22.703125 -24.710938 23.765625 -23.390625 C 24.835938 -22.078125 25.628906 -20.585938 26.140625 -18.921875 C 26.660156 -17.253906 26.921875 -15.507812 26.921875 -13.6875 C 26.921875 -11.851562 26.660156 -10.101562 26.140625 -8.4375 C 25.628906 -6.769531 24.835938 -5.273438 23.765625 -3.953125 C 22.703125 -2.640625 21.351562 -1.597656 19.71875 -0.828125 C 18.09375 -0.0546875 16.175781 0.328125 13.96875 0.328125 C 11.738281 0.328125 9.804688 -0.0546875 8.171875 -0.828125 C 6.535156 -1.597656 5.179688 -2.640625 4.109375 -3.953125 C 3.046875 -5.273438 2.253906 -6.769531 1.734375 -8.4375 C 1.222656 -10.101562 0.96875 -11.851562 0.96875 -13.6875 C 0.96875 -15.507812 1.222656 -17.253906 1.734375 -18.921875 C 2.253906 -20.585938 3.046875 -22.078125 4.109375 -23.390625 C 5.179688 -24.710938 6.535156 -25.757812 8.171875 -26.53125 C 9.804688 -27.300781 11.738281 -27.6875 13.96875 -27.6875 Z M 13.96875 -2.40625 C 15.3125 -2.40625 16.5 -2.753906 17.53125 -3.453125 C 18.5625 -4.148438 19.359375 -5.3125 19.921875 -6.9375 C 20.484375 -8.570312 20.765625 -10.820312 20.765625 -13.6875 C 20.765625 -16.539062 20.484375 -18.78125 19.921875 -20.40625 C 19.359375 -22.039062 18.5625 -23.207031 17.53125 -23.90625 C 16.5 -24.601562 15.3125 -24.953125 13.96875 -24.953125 C 12.601562 -24.953125 11.398438 -24.601562 10.359375 -23.90625 C 9.328125 -23.207031 8.53125 -22.035156 7.96875 -20.390625 C 7.40625 -18.742188 7.125 -16.507812 7.125 -13.6875 C 7.125 -10.820312 7.40625 -8.570312 7.96875 -6.9375 C 8.53125 -5.3125 9.328125 -4.148438 10.359375 -3.453125 C 11.398438 -2.753906 12.601562 -2.40625 13.96875 -2.40625 Z M 13.96875 -2.40625 "/></g></g></g><g fill="#c888db" fill-opacity="1"><g transform="translate(153.52334, 267.883283)"><g><path d="M 19.9375 -27.328125 C 20.519531 -27.328125 21.007812 -27.128906 21.40625 -26.734375 C 21.800781 -26.335938 22 -25.847656 22 -25.265625 L 22 -9.25 C 22 -7.351562 21.617188 -5.6875 20.859375 -4.25 C 20.109375 -2.8125 19.007812 -1.6875 17.5625 -0.875 C 16.125 -0.0703125 14.398438 0.328125 12.390625 0.328125 C 10.585938 0.328125 8.90625 0.00390625 7.34375 -0.640625 C 5.78125 -1.296875 4.53125 -2.320312 3.59375 -3.71875 C 2.664062 -5.125 2.203125 -6.96875 2.203125 -9.25 L 2.203125 -20.515625 C 2.203125 -20.972656 2.179688 -21.609375 2.140625 -22.421875 C 2.109375 -23.242188 1.992188 -24.097656 1.796875 -24.984375 C 1.609375 -25.867188 1.285156 -26.648438 0.828125 -27.328125 L 4.9375 -27.328125 C 5.675781 -27.328125 6.316406 -27.0625 6.859375 -26.53125 C 7.398438 -26 7.671875 -25.351562 7.671875 -24.59375 L 7.671875 -9.25 C 7.671875 -7.757812 7.90625 -6.535156 8.375 -5.578125 C 8.84375 -4.617188 9.460938 -3.90625 10.234375 -3.4375 C 11.015625 -2.96875 11.863281 -2.734375 12.78125 -2.734375 C 14.4375 -2.734375 15.703125 -3.320312 16.578125 -4.5 C 17.453125 -5.675781 17.890625 -7.257812 17.890625 -9.25 L 17.890625 -22.21875 C 17.890625 -22.53125 17.863281 -23.015625 17.8125 -23.671875 C 17.769531 -24.328125 17.675781 -25 17.53125 -25.6875 C 17.382812 -26.375 17.171875 -26.921875 16.890625 -27.328125 Z M 19.9375 -27.328125 "/></g></g></g><g fill="#c888db" fill-opacity="1"><g transform="translate(177.319382, 267.883283)"><g><path d="M 20.59375 -27.328125 C 21.164062 -27.328125 21.648438 -27.128906 22.046875 -26.734375 C 22.441406 -26.335938 22.640625 -25.847656 22.640625 -25.265625 L 22.640625 -3.421875 L 17.671875 0.328125 L 5.578125 -20.34375 L 5.578125 -5.46875 C 5.578125 -5.46875 5.582031 -5.28125 5.59375 -4.90625 C 5.601562 -4.539062 5.625 -4.070312 5.65625 -3.5 C 5.695312 -2.9375 5.765625 -2.34375 5.859375 -1.71875 C 5.960938 -1.101562 6.097656 -0.53125 6.265625 0 L 3.53125 0 C 3.144531 0 2.816406 -0.132812 2.546875 -0.40625 C 2.285156 -0.6875 2.15625 -1.007812 2.15625 -1.375 L 2.15625 -21.890625 C 2.15625 -21.890625 2.148438 -22.066406 2.140625 -22.421875 C 2.128906 -22.785156 2.101562 -23.253906 2.0625 -23.828125 C 2.03125 -24.410156 1.96875 -25.007812 1.875 -25.625 C 1.78125 -26.25 1.644531 -26.816406 1.46875 -27.328125 L 5.609375 -27.328125 C 6.285156 -27.328125 6.878906 -27.222656 7.390625 -27.015625 C 7.910156 -26.816406 8.335938 -26.453125 8.671875 -25.921875 L 19.21875 -7.5625 L 19.21875 -21.890625 C 19.21875 -21.890625 19.21875 -22.066406 19.21875 -22.421875 C 19.21875 -22.785156 19.191406 -23.253906 19.140625 -23.828125 C 19.097656 -24.410156 19.03125 -25.007812 18.9375 -25.625 C 18.84375 -26.25 18.710938 -26.816406 18.546875 -27.328125 Z M 20.59375 -27.328125 "/></g></g></g><g fill="#c888db" fill-opacity="1"><g transform="translate(201.907435, 267.883283)"><g><path d="M 2.40625 -27.328125 L 20.84375 -27.328125 L 20.15625 -25.59375 C 19.945312 -25.09375 19.578125 -24.6875 19.046875 -24.375 C 18.515625 -24.0625 17.972656 -23.90625 17.421875 -23.90625 L 10.625 -23.90625 C 11.175781 -23.90625 11.648438 -23.707031 12.046875 -23.3125 C 12.441406 -22.914062 12.640625 -22.441406 12.640625 -21.890625 L 12.640625 -6.84375 C 12.640625 -6.382812 12.660156 -5.742188 12.703125 -4.921875 C 12.753906 -4.109375 12.867188 -3.257812 13.046875 -2.375 C 13.222656 -1.488281 13.539062 -0.695312 14 0 L 9.9375 0 C 9.164062 0 8.515625 -0.269531 7.984375 -0.8125 C 7.460938 -1.351562 7.203125 -1.992188 7.203125 -2.734375 L 7.203125 -23.90625 L -1.015625 -23.90625 L -0.328125 -25.625 C -0.109375 -26.15625 0.257812 -26.570312 0.78125 -26.875 C 1.3125 -27.175781 1.851562 -27.328125 2.40625 -27.328125 Z M 2.40625 -27.328125 "/></g></g></g><g fill="#c888db" fill-opacity="1"><g transform="translate(221.743478, 267.883283)"><g><path d="M 7.84375 -6.84375 C 7.84375 -6.382812 7.859375 -5.742188 7.890625 -4.921875 C 7.929688 -4.109375 8.046875 -3.257812 8.234375 -2.375 C 8.429688 -1.488281 8.757812 -0.695312 9.21875 0 L 5.109375 0 C 4.335938 0 3.6875 -0.269531 3.15625 -0.8125 C 2.632812 -1.351562 2.375 -1.992188 2.375 -2.734375 L 2.375 -20.515625 C 2.375 -20.972656 2.351562 -21.609375 2.3125 -22.421875 C 2.28125 -23.242188 2.164062 -24.097656 1.96875 -24.984375 C 1.78125 -25.867188 1.460938 -26.648438 1.015625 -27.328125 L 5.109375 -27.328125 C 5.859375 -27.328125 6.5 -27.0625 7.03125 -26.53125 C 7.570312 -26 7.84375 -25.351562 7.84375 -24.59375 Z M 7.84375 -6.84375 "/></g></g></g><g fill="#c888db" fill-opacity="1"><g transform="translate(231.967503, 267.883283)"><g><path d="M 7.84375 -23.9375 L 7.84375 -3.421875 C 8.300781 -3.421875 8.929688 -3.421875 9.734375 -3.421875 C 10.535156 -3.421875 11.414062 -3.421875 12.375 -3.421875 C 13.34375 -3.421875 14.289062 -3.421875 15.21875 -3.421875 C 16.15625 -3.421875 16.992188 -3.421875 17.734375 -3.421875 C 18.484375 -3.421875 19.039062 -3.421875 19.40625 -3.421875 C 19.351562 -3.273438 19.28125 -3.066406 19.1875 -2.796875 C 19.09375 -2.535156 18.992188 -2.289062 18.890625 -2.0625 C 18.796875 -1.84375 18.75 -1.734375 18.75 -1.734375 C 18.5625 -1.222656 18.234375 -0.804688 17.765625 -0.484375 C 17.296875 -0.160156 16.785156 0 16.234375 0 L 5.109375 0 C 4.335938 0 3.6875 -0.269531 3.15625 -0.8125 C 2.632812 -1.351562 2.375 -1.992188 2.375 -2.734375 L 2.375 -20.515625 C 2.375 -20.972656 2.351562 -21.609375 2.3125 -22.421875 C 2.28125 -23.242188 2.164062 -24.097656 1.96875 -24.984375 C 1.78125 -25.867188 1.460938 -26.648438 1.015625 -27.328125 L 19.4375 -27.328125 L 18.75 -25.625 C 18.5625 -25.125 18.234375 -24.71875 17.765625 -24.40625 C 17.296875 -24.09375 16.785156 -23.9375 16.234375 -23.9375 Z M 11.953125 -16.421875 L 17.390625 -16.421875 L 16.703125 -14.6875 C 16.515625 -14.1875 16.148438 -13.78125 15.609375 -13.46875 C 15.066406 -13.15625 14.519531 -13 13.96875 -13 L 8.53125 -13 L 9.21875 -14.71875 C 9.40625 -15.226562 9.769531 -15.640625 10.3125 -15.953125 C 10.851562 -16.265625 11.398438 -16.421875 11.953125 -16.421875 Z M 11.953125 -16.421875 "/></g></g></g><g fill="#c888db" fill-opacity="1"><g transform="translate(251.875541, 267.883283)"><g><path d="M 9.25 -17.671875 C 10.351562 -17.003906 11.539062 -16.335938 12.8125 -15.671875 C 14.082031 -15.015625 15.28125 -14.300781 16.40625 -13.53125 C 17.539062 -12.769531 18.46875 -11.894531 19.1875 -10.90625 C 19.90625 -9.925781 20.265625 -8.773438 20.265625 -7.453125 C 20.265625 -5.867188 19.8125 -4.492188 18.90625 -3.328125 C 18.007812 -2.160156 16.84375 -1.257812 15.40625 -0.625 C 13.96875 0.0078125 12.445312 0.328125 10.84375 0.328125 C 8.988281 0.328125 7.390625 0.046875 6.046875 -0.515625 C 4.703125 -1.085938 3.613281 -1.796875 2.78125 -2.640625 C 1.957031 -3.492188 1.421875 -4.359375 1.171875 -5.234375 C 0.921875 -6.109375 0.972656 -6.847656 1.328125 -7.453125 C 1.691406 -8.078125 2.171875 -8.632812 2.765625 -9.125 C 3.367188 -9.613281 3.910156 -10.007812 4.390625 -10.3125 C 4.867188 -10.613281 5.109375 -10.765625 5.109375 -10.765625 C 5.160156 -9.753906 5.363281 -8.753906 5.71875 -7.765625 C 6.082031 -6.785156 6.554688 -5.894531 7.140625 -5.09375 C 7.734375 -4.289062 8.398438 -3.648438 9.140625 -3.171875 C 9.890625 -2.691406 10.660156 -2.453125 11.453125 -2.453125 C 12.410156 -2.453125 13.265625 -2.707031 14.015625 -3.21875 C 14.773438 -3.738281 15.15625 -4.429688 15.15625 -5.296875 C 15.15625 -5.992188 15.007812 -6.59375 14.71875 -7.09375 C 14.4375 -7.59375 13.96875 -8.078125 13.3125 -8.546875 C 12.664062 -9.015625 11.804688 -9.535156 10.734375 -10.109375 C 9.671875 -10.691406 8.382812 -11.425781 6.875 -12.3125 C 5.363281 -13.175781 4.21875 -14.039062 3.4375 -14.90625 C 2.65625 -15.769531 2.125 -16.613281 1.84375 -17.4375 C 1.570312 -18.269531 1.4375 -19.054688 1.4375 -19.796875 C 1.4375 -21.285156 1.851562 -22.625 2.6875 -23.8125 C 3.53125 -25 4.660156 -25.941406 6.078125 -26.640625 C 7.492188 -27.335938 9.054688 -27.6875 10.765625 -27.6875 C 12.347656 -27.6875 13.769531 -27.445312 15.03125 -26.96875 C 16.289062 -26.488281 17.300781 -25.867188 18.0625 -25.109375 C 18.832031 -24.347656 19.304688 -23.550781 19.484375 -22.71875 C 19.671875 -21.894531 19.476562 -21.140625 18.90625 -20.453125 C 18.394531 -19.847656 17.796875 -19.3125 17.109375 -18.84375 C 16.429688 -18.375 15.898438 -18.046875 15.515625 -17.859375 C 15.203125 -20.035156 14.539062 -21.753906 13.53125 -23.015625 C 12.53125 -24.273438 11.332031 -24.90625 9.9375 -24.90625 C 8.757812 -24.90625 7.859375 -24.585938 7.234375 -23.953125 C 6.609375 -23.316406 6.296875 -22.566406 6.296875 -21.703125 C 6.296875 -21.035156 6.550781 -20.34375 7.0625 -19.625 C 7.582031 -18.90625 8.3125 -18.253906 9.25 -17.671875 Z M 9.25 -17.671875 "/></g></g></g></svg>